<?xml version="1.0" encoding="UTF-8" standalone="no"?>
<!DOCTYPE svg PUBLIC "-//W3C//DTD SVG 1.1//EN"
 "http://www.w3.org/Graphics/SVG/1.1/DTD/svg11.dtd">
<!-- Generated by graphviz version 2.38.0 (20140413.2041)
 -->
<!-- Title: controllers_diagram Pages: 1 -->
<svg width="437pt" height="356pt"
 viewBox="0.00 0.00 437.50 355.50" xmlns="http://www.w3.org/2000/svg" xmlns:xlink="http://www.w3.org/1999/xlink">
<g id="graph0" class="graph" transform="scale(1 1) rotate(0) translate(75.5 243.5)">
<title>controllers_diagram</title>
<polygon fill="none" stroke="none" points="-75.5,112 -75.5,-243.5 362,-243.5 362,112 -75.5,112"/>
<!-- _diagram_info -->
<g id="node1" class="node"><title>_diagram_info</title>
<text text-anchor="start" x="152" y="-207.6" font-family="Times,serif" font-size="13.00">Controllers diagram</text>
<text text-anchor="start" x="152" y="-193.6" font-family="Times,serif" font-size="13.00">Date: Sep 21 2017 &#45; 10:17</text>
<text text-anchor="start" x="152" y="-179.6" font-family="Times,serif" font-size="13.00">Migration version: 20170920184856</text>
<text text-anchor="start" x="152" y="-165.6" font-family="Times,serif" font-size="13.00">Generated by RailRoady 1.5.3</text>
<text text-anchor="start" x="152" y="-151.6" font-family="Times,serif" font-size="13.00">http://railroady.prestonlee.com</text>
</g>
<!-- ApplicationController -->
<g id="node2" class="node"><title>ApplicationController</title>
<path fill="none" stroke="black" d="M-24,-145C-24,-145 88,-145 88,-145 94,-145 100,-151 100,-157 100,-157 100,-227 100,-227 100,-233 94,-239 88,-239 88,-239 -24,-239 -24,-239 -30,-239 -36,-233 -36,-227 -36,-227 -36,-157 -36,-157 -36,-151 -30,-145 -24,-145"/>
<text text-anchor="middle" x="32" y="-223.8" font-family="Times,serif" font-size="14.00">ApplicationController</text>
<polyline fill="none" stroke="black" points="-36,-216 100,-216 "/>
<polyline fill="none" stroke="black" points="-36,-192 100,-192 "/>
<polyline fill="none" stroke="black" points="-36,-168 100,-168 "/>
<text text-anchor="start" x="-28" y="-152.8" font-family="Times,serif" font-size="14.00">_layout</text>
</g>
<!-- PublicationsController -->
<g id="node3" class="node"><title>PublicationsController</title>
<path fill="none" stroke="black" d="M-59.5,107.5C-59.5,107.5 55.5,107.5 55.5,107.5 61.5,107.5 67.5,101.5 67.5,95.5 67.5,95.5 67.5,-93.5 67.5,-93.5 67.5,-99.5 61.5,-105.5 55.5,-105.5 55.5,-105.5 -59.5,-105.5 -59.5,-105.5 -65.5,-105.5 -71.5,-99.5 -71.5,-93.5 -71.5,-93.5 -71.5,95.5 -71.5,95.5 -71.5,101.5 -65.5,107.5 -59.5,107.5"/>
<text text-anchor="middle" x="-2" y="-90.3" font-family="Times,serif" font-size="14.00">PublicationsController</text>
<polyline fill="none" stroke="black" points="-71.5,-82.5 67.5,-82.5 "/>
<text text-anchor="start" x="-63.5" y="-67.3" font-family="Times,serif" font-size="14.00">create</text>
<text text-anchor="start" x="-63.5" y="-52.3" font-family="Times,serif" font-size="14.00">destroy</text>
<text text-anchor="start" x="-63.5" y="-37.3" font-family="Times,serif" font-size="14.00">edit</text>
<text text-anchor="start" x="-63.5" y="-22.3" font-family="Times,serif" font-size="14.00">index</text>
<text text-anchor="start" x="-63.5" y="-7.3" font-family="Times,serif" font-size="14.00">new</text>
<text text-anchor="start" x="-63.5" y="7.7" font-family="Times,serif" font-size="14.00">show</text>
<text text-anchor="start" x="-63.5" y="22.7" font-family="Times,serif" font-size="14.00">update</text>
<polyline fill="none" stroke="black" points="-71.5,30.5 67.5,30.5 "/>
<polyline fill="none" stroke="black" points="-71.5,54.5 67.5,54.5 "/>
<text text-anchor="start" x="-63.5" y="69.7" font-family="Times,serif" font-size="14.00">_layout</text>
<text text-anchor="start" x="-63.5" y="84.7" font-family="Times,serif" font-size="14.00">publication_params</text>
<text text-anchor="start" x="-63.5" y="99.7" font-family="Times,serif" font-size="14.00">set_publication</text>
</g>
<!-- ApplicationsController -->
<g id="node4" class="node"><title>ApplicationsController</title>
<path fill="none" stroke="black" d="M120.5,107.5C120.5,107.5 237.5,107.5 237.5,107.5 243.5,107.5 249.5,101.5 249.5,95.5 249.5,95.5 249.5,-93.5 249.5,-93.5 249.5,-99.5 243.5,-105.5 237.5,-105.5 237.5,-105.5 120.5,-105.5 120.5,-105.5 114.5,-105.5 108.5,-99.5 108.5,-93.5 108.5,-93.5 108.5,95.5 108.5,95.5 108.5,101.5 114.5,107.5 120.5,107.5"/>
<text text-anchor="middle" x="179" y="-90.3" font-family="Times,serif" font-size="14.00">ApplicationsController</text>
<polyline fill="none" stroke="black" points="108.5,-82.5 249.5,-82.5 "/>
<text text-anchor="start" x="116.5" y="-67.3" font-family="Times,serif" font-size="14.00">create</text>
<text text-anchor="start" x="116.5" y="-52.3" font-family="Times,serif" font-size="14.00">destroy</text>
<text text-anchor="start" x="116.5" y="-37.3" font-family="Times,serif" font-size="14.00">edit</text>
<text text-anchor="start" x="116.5" y="-22.3" font-family="Times,serif" font-size="14.00">index</text>
<text text-anchor="start" x="116.5" y="-7.3" font-family="Times,serif" font-size="14.00">new</text>
<text text-anchor="start" x="116.5" y="7.7" font-family="Times,serif" font-size="14.00">show</text>
<text text-anchor="start" x="116.5" y="22.7" font-family="Times,serif" font-size="14.00">update</text>
<polyline fill="none" stroke="black" points="108.5,30.5 249.5,30.5 "/>
<polyline fill="none" stroke="black" points="108.5,54.5 249.5,54.5 "/>
<text text-anchor="start" x="116.5" y="69.7" font-family="Times,serif" font-size="14.00">_layout</text>
<text text-anchor="start" x="116.5" y="84.7" font-family="Times,serif" font-size="14.00">application_params</text>
<text text-anchor="start" x="116.5" y="99.7" font-family="Times,serif" font-size="14.00">set_application</text>
</g>
</g>
</svg>
