<?xml version="1.0" encoding="UTF-8" standalone="no"?>
<!DOCTYPE svg PUBLIC "-//W3C//DTD SVG 1.1//EN"
 "http://www.w3.org/Graphics/SVG/1.1/DTD/svg11.dtd">
<!-- Generated by graphviz version 2.40.1 (20161225.0304)
 -->
<!-- Title: controllers_diagram Pages: 1 -->
<svg width="413pt" height="335pt"
 viewBox="0.00 0.00 413.38 335.00" xmlns="http://www.w3.org/2000/svg" xmlns:xlink="http://www.w3.org/1999/xlink">
<g id="graph0" class="graph" transform="scale(1 1) rotate(0) translate(4 331)">
<title>controllers_diagram</title>
<polygon fill="transparent" stroke="transparent" points="-4,4 -4,-331 409.3755,-331 409.3755,4 -4,4"/>
<!-- _diagram_info -->
<g id="node1" class="node">
<title>_diagram_info</title>
<text text-anchor="start" x="206" y="-292.6" font-family="Times,serif" font-size="13.00" fill="#000000">Controllers diagram</text>
<text text-anchor="start" x="206" y="-279.6" font-family="Times,serif" font-size="13.00" fill="#000000">Date: Sep 20 2017 &#45; 16:56</text>
<text text-anchor="start" x="206" y="-266.6" font-family="Times,serif" font-size="13.00" fill="#000000">Migration version: 20170920184856</text>
<text text-anchor="start" x="206" y="-253.6" font-family="Times,serif" font-size="13.00" fill="#000000">Generated by RailRoady 1.5.3</text>
<text text-anchor="start" x="206" y="-240.6" font-family="Times,serif" font-size="13.00" fill="#000000">http://railroady.prestonlee.com</text>
</g>
<!-- ApplicationController -->
<g id="node2" class="node">
<title>ApplicationController</title>
<path fill="none" stroke="#000000" d="M30,-234.5C30,-234.5 145.6416,-234.5 145.6416,-234.5 151.6416,-234.5 157.6416,-240.5 157.6416,-246.5 157.6416,-246.5 157.6416,-314.5 157.6416,-314.5 157.6416,-320.5 151.6416,-326.5 145.6416,-326.5 145.6416,-326.5 30,-326.5 30,-326.5 24,-326.5 18,-320.5 18,-314.5 18,-314.5 18,-246.5 18,-246.5 18,-240.5 24,-234.5 30,-234.5"/>
<text text-anchor="middle" x="87.8208" y="-311.3" font-family="Times,serif" font-size="14.00" fill="#000000">ApplicationController</text>
<polyline fill="none" stroke="#000000" points="18,-304.5 157.6416,-304.5 "/>
<polyline fill="none" stroke="#000000" points="18,-280.5 157.6416,-280.5 "/>
<polyline fill="none" stroke="#000000" points="18,-256.5 157.6416,-256.5 "/>
<text text-anchor="start" x="26" y="-241.3" font-family="Times,serif" font-size="14.00" fill="#000000">_layout</text>
</g>
<!-- ApplicationsController -->
<g id="node3" class="node">
<title>ApplicationsController</title>
<path fill="none" stroke="#000000" d="M12,-.5C12,-.5 133.0898,-.5 133.0898,-.5 139.0898,-.5 145.0898,-6.5 145.0898,-12.5 145.0898,-12.5 145.0898,-190.5 145.0898,-190.5 145.0898,-196.5 139.0898,-202.5 133.0898,-202.5 133.0898,-202.5 12,-202.5 12,-202.5 6,-202.5 0,-196.5 0,-190.5 0,-190.5 0,-12.5 0,-12.5 0,-6.5 6,-.5 12,-.5"/>
<text text-anchor="middle" x="72.5449" y="-187.3" font-family="Times,serif" font-size="14.00" fill="#000000">ApplicationsController</text>
<polyline fill="none" stroke="#000000" points="0,-180.5 145.0898,-180.5 "/>
<text text-anchor="start" x="8" y="-165.3" font-family="Times,serif" font-size="14.00" fill="#000000">index</text>
<text text-anchor="start" x="8" y="-151.3" font-family="Times,serif" font-size="14.00" fill="#000000">destroy</text>
<text text-anchor="start" x="8" y="-137.3" font-family="Times,serif" font-size="14.00" fill="#000000">edit</text>
<text text-anchor="start" x="8" y="-123.3" font-family="Times,serif" font-size="14.00" fill="#000000">create</text>
<text text-anchor="start" x="8" y="-109.3" font-family="Times,serif" font-size="14.00" fill="#000000">new</text>
<text text-anchor="start" x="8" y="-95.3" font-family="Times,serif" font-size="14.00" fill="#000000">show</text>
<text text-anchor="start" x="8" y="-81.3" font-family="Times,serif" font-size="14.00" fill="#000000">update</text>
<polyline fill="none" stroke="#000000" points="0,-74.5 145.0898,-74.5 "/>
<polyline fill="none" stroke="#000000" points="0,-50.5 145.0898,-50.5 "/>
<text text-anchor="start" x="8" y="-35.3" font-family="Times,serif" font-size="14.00" fill="#000000">_layout</text>
<text text-anchor="start" x="8" y="-21.3" font-family="Times,serif" font-size="14.00" fill="#000000">application_params</text>
<text text-anchor="start" x="8" y="-7.3" font-family="Times,serif" font-size="14.00" fill="#000000">set_application</text>
</g>
<!-- PublicationsController -->
<g id="node4" class="node">
<title>PublicationsController</title>
<path fill="none" stroke="#000000" d="M192,-.5C192,-.5 310.7656,-.5 310.7656,-.5 316.7656,-.5 322.7656,-6.5 322.7656,-12.5 322.7656,-12.5 322.7656,-190.5 322.7656,-190.5 322.7656,-196.5 316.7656,-202.5 310.7656,-202.5 310.7656,-202.5 192,-202.5 192,-202.5 186,-202.5 180,-196.5 180,-190.5 180,-190.5 180,-12.5 180,-12.5 180,-6.5 186,-.5 192,-.5"/>
<text text-anchor="middle" x="251.3828" y="-187.3" font-family="Times,serif" font-size="14.00" fill="#000000">PublicationsController</text>
<polyline fill="none" stroke="#000000" points="180,-180.5 322.7656,-180.5 "/>
<text text-anchor="start" x="188" y="-165.3" font-family="Times,serif" font-size="14.00" fill="#000000">index</text>
<text text-anchor="start" x="188" y="-151.3" font-family="Times,serif" font-size="14.00" fill="#000000">destroy</text>
<text text-anchor="start" x="188" y="-137.3" font-family="Times,serif" font-size="14.00" fill="#000000">edit</text>
<text text-anchor="start" x="188" y="-123.3" font-family="Times,serif" font-size="14.00" fill="#000000">create</text>
<text text-anchor="start" x="188" y="-109.3" font-family="Times,serif" font-size="14.00" fill="#000000">new</text>
<text text-anchor="start" x="188" y="-95.3" font-family="Times,serif" font-size="14.00" fill="#000000">show</text>
<text text-anchor="start" x="188" y="-81.3" font-family="Times,serif" font-size="14.00" fill="#000000">update</text>
<polyline fill="none" stroke="#000000" points="180,-74.5 322.7656,-74.5 "/>
<polyline fill="none" stroke="#000000" points="180,-50.5 322.7656,-50.5 "/>
<text text-anchor="start" x="188" y="-35.3" font-family="Times,serif" font-size="14.00" fill="#000000">_layout</text>
<text text-anchor="start" x="188" y="-21.3" font-family="Times,serif" font-size="14.00" fill="#000000">publication_params</text>
<text text-anchor="start" x="188" y="-7.3" font-family="Times,serif" font-size="14.00" fill="#000000">set_publication</text>
</g>
</g>
</svg>
