<?xml version="1.0" encoding="UTF-8" standalone="no"?>
<!DOCTYPE svg PUBLIC "-//W3C//DTD SVG 1.1//EN"
 "http://www.w3.org/Graphics/SVG/1.1/DTD/svg11.dtd">
<!-- Generated by graphviz version 2.38.0 (20140413.2041)
 -->
<!-- Title: controllers_diagram Pages: 1 -->
<svg width="910pt" height="861pt"
 viewBox="0.00 0.00 909.50 861.00" xmlns="http://www.w3.org/2000/svg" xmlns:xlink="http://www.w3.org/1999/xlink">
<g id="graph0" class="graph" transform="scale(1 1) rotate(0) translate(394.5 466.5)">
<title>controllers_diagram</title>
<polygon fill="none" stroke="none" points="-394.5,394.5 -394.5,-466.5 515,-466.5 515,394.5 -394.5,394.5"/>
<!-- _diagram_info -->
<g id="node1" class="node"><title>_diagram_info</title>
<text text-anchor="start" x="263" y="-114.6" font-family="Times,serif" font-size="13.00">Controllers diagram</text>
<text text-anchor="start" x="263" y="-100.6" font-family="Times,serif" font-size="13.00">Date: Sep 25 2017 &#45; 22:18</text>
<text text-anchor="start" x="263" y="-86.6" font-family="Times,serif" font-size="13.00">Migration version: 20170920184856</text>
<text text-anchor="start" x="263" y="-72.6" font-family="Times,serif" font-size="13.00">Generated by RailRoady 1.5.3</text>
<text text-anchor="start" x="263" y="-58.6" font-family="Times,serif" font-size="13.00">http://railroady.prestonlee.com</text>
</g>
<!-- Users::UnlocksController -->
<g id="node2" class="node"><title>Users::UnlocksController</title>
<path fill="none" stroke="black" d="M-327.5,-188C-327.5,-188 -196.5,-188 -196.5,-188 -190.5,-188 -184.5,-194 -184.5,-200 -184.5,-200 -184.5,-270 -184.5,-270 -184.5,-276 -190.5,-282 -196.5,-282 -196.5,-282 -327.5,-282 -327.5,-282 -333.5,-282 -339.5,-276 -339.5,-270 -339.5,-270 -339.5,-200 -339.5,-200 -339.5,-194 -333.5,-188 -327.5,-188"/>
<text text-anchor="middle" x="-262" y="-266.8" font-family="Times,serif" font-size="14.00">Users::UnlocksController</text>
<polyline fill="none" stroke="black" points="-339.5,-259 -184.5,-259 "/>
<polyline fill="none" stroke="black" points="-339.5,-235 -184.5,-235 "/>
<polyline fill="none" stroke="black" points="-339.5,-211 -184.5,-211 "/>
<text text-anchor="start" x="-331.5" y="-195.8" font-family="Times,serif" font-size="14.00">_layout</text>
</g>
<!-- Users::OmniauthCallbacksController -->
<g id="node3" class="node"><title>Users::OmniauthCallbacksController</title>
<path fill="none" stroke="black" d="M267,84C267,84 461,84 461,84 467,84 473,78 473,72 473,72 473,2 473,2 473,-4 467,-10 461,-10 461,-10 267,-10 267,-10 261,-10 255,-4 255,2 255,2 255,72 255,72 255,78 261,84 267,84"/>
<text text-anchor="middle" x="364" y="5.2" font-family="Times,serif" font-size="14.00">Users::OmniauthCallbacksController</text>
<polyline fill="none" stroke="black" points="255,13 473,13 "/>
<polyline fill="none" stroke="black" points="255,37 473,37 "/>
<polyline fill="none" stroke="black" points="255,61 473,61 "/>
<text text-anchor="start" x="263" y="76.2" font-family="Times,serif" font-size="14.00">_layout</text>
</g>
<!-- Users::PasswordsController -->
<g id="node4" class="node"><title>Users::PasswordsController</title>
<path fill="none" stroke="black" d="M11.5,373C11.5,373 154.5,373 154.5,373 160.5,373 166.5,367 166.5,361 166.5,361 166.5,291 166.5,291 166.5,285 160.5,279 154.5,279 154.5,279 11.5,279 11.5,279 5.5,279 -0.5,285 -0.5,291 -0.5,291 -0.5,361 -0.5,361 -0.5,367 5.5,373 11.5,373"/>
<text text-anchor="middle" x="83" y="294.2" font-family="Times,serif" font-size="14.00">Users::PasswordsController</text>
<polyline fill="none" stroke="black" points="-0.5,302 166.5,302 "/>
<polyline fill="none" stroke="black" points="-0.5,326 166.5,326 "/>
<polyline fill="none" stroke="black" points="-0.5,350 166.5,350 "/>
<text text-anchor="start" x="7.5" y="365.2" font-family="Times,serif" font-size="14.00">_layout</text>
</g>
<!-- Users::ConfirmationsController -->
<g id="node5" class="node"><title>Users::ConfirmationsController</title>
<path fill="none" stroke="black" d="M318.5,-307C318.5,-307 483.5,-307 483.5,-307 489.5,-307 495.5,-313 495.5,-319 495.5,-319 495.5,-389 495.5,-389 495.5,-395 489.5,-401 483.5,-401 483.5,-401 318.5,-401 318.5,-401 312.5,-401 306.5,-395 306.5,-389 306.5,-389 306.5,-319 306.5,-319 306.5,-313 312.5,-307 318.5,-307"/>
<text text-anchor="middle" x="401" y="-385.8" font-family="Times,serif" font-size="14.00">Users::ConfirmationsController</text>
<polyline fill="none" stroke="black" points="306.5,-378 495.5,-378 "/>
<polyline fill="none" stroke="black" points="306.5,-354 495.5,-354 "/>
<polyline fill="none" stroke="black" points="306.5,-330 495.5,-330 "/>
<text text-anchor="start" x="314.5" y="-314.8" font-family="Times,serif" font-size="14.00">_layout</text>
</g>
<!-- Users::SessionsController -->
<g id="node6" class="node"><title>Users::SessionsController</title>
<path fill="none" stroke="black" d="M-378.5,390C-378.5,390 -245.5,390 -245.5,390 -239.5,390 -233.5,384 -233.5,378 -233.5,378 -233.5,308 -233.5,308 -233.5,302 -239.5,296 -245.5,296 -245.5,296 -378.5,296 -378.5,296 -384.5,296 -390.5,302 -390.5,308 -390.5,308 -390.5,378 -390.5,378 -390.5,384 -384.5,390 -378.5,390"/>
<text text-anchor="middle" x="-312" y="311.2" font-family="Times,serif" font-size="14.00">Users::SessionsController</text>
<polyline fill="none" stroke="black" points="-390.5,319 -233.5,319 "/>
<polyline fill="none" stroke="black" points="-390.5,343 -233.5,343 "/>
<polyline fill="none" stroke="black" points="-390.5,367 -233.5,367 "/>
<text text-anchor="start" x="-382.5" y="382.2" font-family="Times,serif" font-size="14.00">_layout</text>
</g>
<!-- Users::RegistrationsController -->
<g id="node7" class="node"><title>Users::RegistrationsController</title>
<path fill="none" stroke="black" d="M-141,-153.5C-141,-153.5 41,-153.5 41,-153.5 47,-153.5 53,-159.5 53,-165.5 53,-165.5 53,-264.5 53,-264.5 53,-270.5 47,-276.5 41,-276.5 41,-276.5 -141,-276.5 -141,-276.5 -147,-276.5 -153,-270.5 -153,-264.5 -153,-264.5 -153,-165.5 -153,-165.5 -153,-159.5 -147,-153.5 -141,-153.5"/>
<text text-anchor="middle" x="-50" y="-261.3" font-family="Times,serif" font-size="14.00">Users::RegistrationsController</text>
<polyline fill="none" stroke="black" points="-153,-253.5 53,-253.5 "/>
<polyline fill="none" stroke="black" points="-153,-229.5 53,-229.5 "/>
<text text-anchor="start" x="-145" y="-214.3" font-family="Times,serif" font-size="14.00">_layout_from_proc</text>
<text text-anchor="start" x="-145" y="-199.3" font-family="Times,serif" font-size="14.00">configure_account_update_params</text>
<text text-anchor="start" x="-145" y="-184.3" font-family="Times,serif" font-size="14.00">configure_sign_up_params</text>
<polyline fill="none" stroke="black" points="-153,-176.5 53,-176.5 "/>
<text text-anchor="start" x="-145" y="-161.3" font-family="Times,serif" font-size="14.00">_layout</text>
</g>
<!-- ApplicationController -->
<g id="node8" class="node"><title>ApplicationController</title>
<path fill="none" stroke="black" d="M-259.5,51C-259.5,51 -136.5,51 -136.5,51 -130.5,51 -124.5,45 -124.5,39 -124.5,39 -124.5,-105 -124.5,-105 -124.5,-111 -130.5,-117 -136.5,-117 -136.5,-117 -259.5,-117 -259.5,-117 -265.5,-117 -271.5,-111 -271.5,-105 -271.5,-105 -271.5,39 -271.5,39 -271.5,45 -265.5,51 -259.5,51"/>
<text text-anchor="middle" x="-198" y="-101.8" font-family="Times,serif" font-size="14.00">ApplicationController</text>
<polyline fill="none" stroke="black" points="-271.5,-94 -124.5,-94 "/>
<text text-anchor="start" x="-263.5" y="-78.8" font-family="Times,serif" font-size="14.00">authenticate_entity!</text>
<text text-anchor="start" x="-263.5" y="-63.8" font-family="Times,serif" font-size="14.00">current_entities</text>
<text text-anchor="start" x="-263.5" y="-48.8" font-family="Times,serif" font-size="14.00">current_entity</text>
<text text-anchor="start" x="-263.5" y="-33.8" font-family="Times,serif" font-size="14.00">entity_signed_in?</text>
<polyline fill="none" stroke="black" points="-271.5,-26 -124.5,-26 "/>
<polyline fill="none" stroke="black" points="-271.5,-2 -124.5,-2 "/>
<text text-anchor="start" x="-263.5" y="13.2" font-family="Times,serif" font-size="14.00">_layout</text>
<text text-anchor="start" x="-263.5" y="28.2" font-family="Times,serif" font-size="14.00">after_sign_out_path_for</text>
<text text-anchor="start" x="-263.5" y="43.2" font-family="Times,serif" font-size="14.00">user_layout</text>
</g>
<!-- PublicationsController -->
<g id="node9" class="node"><title>PublicationsController</title>
<path fill="none" stroke="black" d="M-72.5,118.5C-72.5,118.5 42.5,118.5 42.5,118.5 48.5,118.5 54.5,112.5 54.5,106.5 54.5,106.5 54.5,-82.5 54.5,-82.5 54.5,-88.5 48.5,-94.5 42.5,-94.5 42.5,-94.5 -72.5,-94.5 -72.5,-94.5 -78.5,-94.5 -84.5,-88.5 -84.5,-82.5 -84.5,-82.5 -84.5,106.5 -84.5,106.5 -84.5,112.5 -78.5,118.5 -72.5,118.5"/>
<text text-anchor="middle" x="-15" y="-79.3" font-family="Times,serif" font-size="14.00">PublicationsController</text>
<polyline fill="none" stroke="black" points="-84.5,-71.5 54.5,-71.5 "/>
<text text-anchor="start" x="-76.5" y="-56.3" font-family="Times,serif" font-size="14.00">create</text>
<text text-anchor="start" x="-76.5" y="-41.3" font-family="Times,serif" font-size="14.00">destroy</text>
<text text-anchor="start" x="-76.5" y="-26.3" font-family="Times,serif" font-size="14.00">edit</text>
<text text-anchor="start" x="-76.5" y="-11.3" font-family="Times,serif" font-size="14.00">index</text>
<text text-anchor="start" x="-76.5" y="3.7" font-family="Times,serif" font-size="14.00">new</text>
<text text-anchor="start" x="-76.5" y="18.7" font-family="Times,serif" font-size="14.00">show</text>
<text text-anchor="start" x="-76.5" y="33.7" font-family="Times,serif" font-size="14.00">update</text>
<polyline fill="none" stroke="black" points="-84.5,41.5 54.5,41.5 "/>
<polyline fill="none" stroke="black" points="-84.5,65.5 54.5,65.5 "/>
<text text-anchor="start" x="-76.5" y="80.7" font-family="Times,serif" font-size="14.00">_layout</text>
<text text-anchor="start" x="-76.5" y="95.7" font-family="Times,serif" font-size="14.00">publication_params</text>
<text text-anchor="start" x="-76.5" y="110.7" font-family="Times,serif" font-size="14.00">set_publication</text>
</g>
<!-- ApplicationsController -->
<g id="node10" class="node"><title>ApplicationsController</title>
<path fill="none" stroke="black" d="M97.5,84.5C97.5,84.5 214.5,84.5 214.5,84.5 220.5,84.5 226.5,78.5 226.5,72.5 226.5,72.5 226.5,-116.5 226.5,-116.5 226.5,-122.5 220.5,-128.5 214.5,-128.5 214.5,-128.5 97.5,-128.5 97.5,-128.5 91.5,-128.5 85.5,-122.5 85.5,-116.5 85.5,-116.5 85.5,72.5 85.5,72.5 85.5,78.5 91.5,84.5 97.5,84.5"/>
<text text-anchor="middle" x="156" y="-113.3" font-family="Times,serif" font-size="14.00">ApplicationsController</text>
<polyline fill="none" stroke="black" points="85.5,-105.5 226.5,-105.5 "/>
<text text-anchor="start" x="93.5" y="-90.3" font-family="Times,serif" font-size="14.00">create</text>
<text text-anchor="start" x="93.5" y="-75.3" font-family="Times,serif" font-size="14.00">destroy</text>
<text text-anchor="start" x="93.5" y="-60.3" font-family="Times,serif" font-size="14.00">edit</text>
<text text-anchor="start" x="93.5" y="-45.3" font-family="Times,serif" font-size="14.00">index</text>
<text text-anchor="start" x="93.5" y="-30.3" font-family="Times,serif" font-size="14.00">new</text>
<text text-anchor="start" x="93.5" y="-15.3" font-family="Times,serif" font-size="14.00">show</text>
<text text-anchor="start" x="93.5" y="-0.3" font-family="Times,serif" font-size="14.00">update</text>
<polyline fill="none" stroke="black" points="85.5,7.5 226.5,7.5 "/>
<polyline fill="none" stroke="black" points="85.5,31.5 226.5,31.5 "/>
<text text-anchor="start" x="93.5" y="46.7" font-family="Times,serif" font-size="14.00">_layout</text>
<text text-anchor="start" x="93.5" y="61.7" font-family="Times,serif" font-size="14.00">application_params</text>
<text text-anchor="start" x="93.5" y="76.7" font-family="Times,serif" font-size="14.00">set_application</text>
</g>
<!-- Companies::UnlocksController -->
<g id="node11" class="node"><title>Companies::UnlocksController</title>
<path fill="none" stroke="black" d="M-141,-307C-141,-307 21,-307 21,-307 27,-307 33,-313 33,-319 33,-319 33,-389 33,-389 33,-395 27,-401 21,-401 21,-401 -141,-401 -141,-401 -147,-401 -153,-395 -153,-389 -153,-389 -153,-319 -153,-319 -153,-313 -147,-307 -141,-307"/>
<text text-anchor="middle" x="-60" y="-385.8" font-family="Times,serif" font-size="14.00">Companies::UnlocksController</text>
<polyline fill="none" stroke="black" points="-153,-378 33,-378 "/>
<polyline fill="none" stroke="black" points="-153,-354 33,-354 "/>
<polyline fill="none" stroke="black" points="-153,-330 33,-330 "/>
<text text-anchor="start" x="-145" y="-314.8" font-family="Times,serif" font-size="14.00">_layout</text>
</g>
<!-- Companies::OmniauthCallbacksController -->
<g id="node12" class="node"><title>Companies::OmniauthCallbacksController</title>
<path fill="none" stroke="black" d="M181.5,-171C181.5,-171 406.5,-171 406.5,-171 412.5,-171 418.5,-177 418.5,-183 418.5,-183 418.5,-253 418.5,-253 418.5,-259 412.5,-265 406.5,-265 406.5,-265 181.5,-265 181.5,-265 175.5,-265 169.5,-259 169.5,-253 169.5,-253 169.5,-183 169.5,-183 169.5,-177 175.5,-171 181.5,-171"/>
<text text-anchor="middle" x="294" y="-249.8" font-family="Times,serif" font-size="14.00">Companies::OmniauthCallbacksController</text>
<polyline fill="none" stroke="black" points="169.5,-242 418.5,-242 "/>
<polyline fill="none" stroke="black" points="169.5,-218 418.5,-218 "/>
<polyline fill="none" stroke="black" points="169.5,-194 418.5,-194 "/>
<text text-anchor="start" x="177.5" y="-178.8" font-family="Times,serif" font-size="14.00">_layout</text>
</g>
<!-- Companies::PasswordsController -->
<g id="node13" class="node"><title>Companies::PasswordsController</title>
<path fill="none" stroke="black" d="M80,-307C80,-307 254,-307 254,-307 260,-307 266,-313 266,-319 266,-319 266,-389 266,-389 266,-395 260,-401 254,-401 254,-401 80,-401 80,-401 74,-401 68,-395 68,-389 68,-389 68,-319 68,-319 68,-313 74,-307 80,-307"/>
<text text-anchor="middle" x="167" y="-385.8" font-family="Times,serif" font-size="14.00">Companies::PasswordsController</text>
<polyline fill="none" stroke="black" points="68,-378 266,-378 "/>
<polyline fill="none" stroke="black" points="68,-354 266,-354 "/>
<polyline fill="none" stroke="black" points="68,-330 266,-330 "/>
<text text-anchor="start" x="76" y="-314.8" font-family="Times,serif" font-size="14.00">_layout</text>
</g>
<!-- Companies::ConfirmationsController -->
<g id="node14" class="node"><title>Companies::ConfirmationsController</title>
<path fill="none" stroke="black" d="M-243,254C-243,254 -47,254 -47,254 -41,254 -35,248 -35,242 -35,242 -35,172 -35,172 -35,166 -41,160 -47,160 -47,160 -243,160 -243,160 -249,160 -255,166 -255,172 -255,172 -255,242 -255,242 -255,248 -249,254 -243,254"/>
<text text-anchor="middle" x="-145" y="175.2" font-family="Times,serif" font-size="14.00">Companies::ConfirmationsController</text>
<polyline fill="none" stroke="black" points="-255,183 -35,183 "/>
<polyline fill="none" stroke="black" points="-255,207 -35,207 "/>
<polyline fill="none" stroke="black" points="-255,231 -35,231 "/>
<text text-anchor="start" x="-247" y="246.2" font-family="Times,serif" font-size="14.00">_layout</text>
</g>
<!-- Companies::SessionsController -->
<g id="node15" class="node"><title>Companies::SessionsController</title>
<path fill="none" stroke="black" d="M335,322C335,322 499,322 499,322 505,322 511,316 511,310 511,310 511,240 511,240 511,234 505,228 499,228 499,228 335,228 335,228 329,228 323,234 323,240 323,240 323,310 323,310 323,316 329,322 335,322"/>
<text text-anchor="middle" x="417" y="243.2" font-family="Times,serif" font-size="14.00">Companies::SessionsController</text>
<polyline fill="none" stroke="black" points="323,251 511,251 "/>
<polyline fill="none" stroke="black" points="323,275 511,275 "/>
<polyline fill="none" stroke="black" points="323,299 511,299 "/>
<text text-anchor="start" x="331" y="314.2" font-family="Times,serif" font-size="14.00">_layout</text>
</g>
<!-- Companies::RegistrationsController -->
<g id="node16" class="node"><title>Companies::RegistrationsController</title>
<path fill="none" stroke="black" d="M97,237.5C97,237.5 285,237.5 285,237.5 291,237.5 297,231.5 297,225.5 297,225.5 297,126.5 297,126.5 297,120.5 291,114.5 285,114.5 285,114.5 97,114.5 97,114.5 91,114.5 85,120.5 85,126.5 85,126.5 85,225.5 85,225.5 85,231.5 91,237.5 97,237.5"/>
<text text-anchor="middle" x="191" y="129.7" font-family="Times,serif" font-size="14.00">Companies::RegistrationsController</text>
<polyline fill="none" stroke="black" points="85,137.5 297,137.5 "/>
<polyline fill="none" stroke="black" points="85,161.5 297,161.5 "/>
<text text-anchor="start" x="93" y="176.7" font-family="Times,serif" font-size="14.00">_layout_from_proc</text>
<text text-anchor="start" x="93" y="191.7" font-family="Times,serif" font-size="14.00">configure_account_update_params</text>
<text text-anchor="start" x="93" y="206.7" font-family="Times,serif" font-size="14.00">configure_sign_up_params</text>
<polyline fill="none" stroke="black" points="85,214.5 297,214.5 "/>
<text text-anchor="start" x="93" y="229.7" font-family="Times,serif" font-size="14.00">_layout</text>
</g>
<!-- DashboardsController -->
<g id="node17" class="node"><title>DashboardsController</title>
<path fill="none" stroke="black" d="M-311,-324C-311,-324 -199,-324 -199,-324 -193,-324 -187,-330 -187,-336 -187,-336 -187,-450 -187,-450 -187,-456 -193,-462 -199,-462 -199,-462 -311,-462 -311,-462 -317,-462 -323,-456 -323,-450 -323,-450 -323,-336 -323,-336 -323,-330 -317,-324 -311,-324"/>
<text text-anchor="middle" x="-255" y="-446.8" font-family="Times,serif" font-size="14.00">DashboardsController</text>
<polyline fill="none" stroke="black" points="-323,-439 -187,-439 "/>
<text text-anchor="start" x="-315" y="-423.8" font-family="Times,serif" font-size="14.00">company</text>
<text text-anchor="start" x="-315" y="-408.8" font-family="Times,serif" font-size="14.00">student</text>
<polyline fill="none" stroke="black" points="-323,-401 -187,-401 "/>
<polyline fill="none" stroke="black" points="-323,-377 -187,-377 "/>
<text text-anchor="start" x="-315" y="-361.8" font-family="Times,serif" font-size="14.00">_layout</text>
<text text-anchor="start" x="-315" y="-346.8" font-family="Times,serif" font-size="14.00">load_company</text>
<text text-anchor="start" x="-315" y="-331.8" font-family="Times,serif" font-size="14.00">load_user</text>
</g>
</g>
</svg>
