<?xml version="1.0" encoding="UTF-8" standalone="no"?>
<!DOCTYPE svg PUBLIC "-//W3C//DTD SVG 1.1//EN"
 "http://www.w3.org/Graphics/SVG/1.1/DTD/svg11.dtd">
<!-- Generated by graphviz version 2.40.1 (20161225.0304)
 -->
<!-- Title: models_diagram Pages: 1 -->
<svg width="648pt" height="441pt"
 viewBox="0.00 0.00 648.06 441.00" xmlns="http://www.w3.org/2000/svg" xmlns:xlink="http://www.w3.org/1999/xlink">
<g id="graph0" class="graph" transform="scale(1 1) rotate(0) translate(4 437)">
<title>models_diagram</title>
<polygon fill="transparent" stroke="transparent" points="-4,4 -4,-437 644.0565,-437 644.0565,4 -4,4"/>
<!-- _diagram_info -->
<g id="node1" class="node">
<title>_diagram_info</title>
<text text-anchor="start" x="8" y="-418.6" font-family="Times,serif" font-size="13.00" fill="#000000">Models diagram</text>
<text text-anchor="start" x="8" y="-405.6" font-family="Times,serif" font-size="13.00" fill="#000000">Date: Sep 21 2017 &#45; 10:10</text>
<text text-anchor="start" x="8" y="-392.6" font-family="Times,serif" font-size="13.00" fill="#000000">Migration version: 20170920184856</text>
<text text-anchor="start" x="8" y="-379.6" font-family="Times,serif" font-size="13.00" fill="#000000">Generated by RailRoady 1.5.3</text>
<text text-anchor="start" x="8" y="-366.6" font-family="Times,serif" font-size="13.00" fill="#000000">http://railroady.prestonlee.com</text>
</g>
<!-- Application -->
<g id="node2" class="node">
<title>Application</title>
<ellipse fill="none" stroke="#000000" cx="55.6877" cy="-90" rx="51.7174" ry="18"/>
<text text-anchor="middle" x="55.6877" y="-85.8" font-family="Times,serif" font-size="14.00" fill="#000000">Application</text>
</g>
<!-- Message -->
<g id="node11" class="node">
<title>Message</title>
<ellipse fill="none" stroke="#000000" cx="55.6877" cy="-18" rx="41.1007" ry="18"/>
<text text-anchor="middle" x="55.6877" y="-13.8" font-family="Times,serif" font-size="14.00" fill="#000000">Message</text>
</g>
<!-- Application&#45;&gt;Message -->
<g id="edge1" class="edge">
<title>Application&#45;&gt;Message</title>
<path fill="none" stroke="#683036" d="M55.6877,-63.8144C55.6877,-58.2775 55.6877,-52.4053 55.6877,-46.7785"/>
<ellipse fill="none" stroke="#683036" cx="55.6878" cy="-67.8314" rx="4" ry="4"/>
<polygon fill="#683036" stroke="#683036" points="55.6878,-46.4133 60.1877,-36.4132 55.6878,-41.4133 55.6877,-36.4133 55.6877,-36.4133 55.6877,-36.4133 55.6878,-41.4133 51.1877,-36.4133 55.6878,-46.4133 55.6878,-46.4133"/>
</g>
<!-- ApplicationRecord -->
<g id="node3" class="node">
<title>ApplicationRecord</title>
<ellipse fill="none" stroke="#000000" cx="391.6877" cy="-396.5" rx="77.2916" ry="18"/>
<text text-anchor="middle" x="391.6877" y="-392.3" font-family="Times,serif" font-size="14.00" fill="#000000">ApplicationRecord</text>
</g>
<!-- Area -->
<g id="node4" class="node">
<title>Area</title>
<ellipse fill="none" stroke="#000000" cx="195.6877" cy="-234" rx="27.0787" ry="18"/>
<text text-anchor="middle" x="195.6877" y="-229.8" font-family="Times,serif" font-size="14.00" fill="#000000">Area</text>
</g>
<!-- Publication -->
<g id="node12" class="node">
<title>Publication</title>
<ellipse fill="none" stroke="#000000" cx="198.6877" cy="-162" rx="50.281" ry="18"/>
<text text-anchor="middle" x="198.6877" y="-157.8" font-family="Times,serif" font-size="14.00" fill="#000000">Publication</text>
</g>
<!-- Area&#45;&gt;Publication -->
<g id="edge2" class="edge">
<title>Area&#45;&gt;Publication</title>
<path fill="none" stroke="#8cf8af" d="M196.7788,-207.8144C197.0095,-202.2775 197.2542,-196.4053 197.4886,-190.7785"/>
<ellipse fill="none" stroke="#8cf8af" cx="196.6113" cy="-211.8348" rx="4" ry="4"/>
<polygon fill="#8cf8af" stroke="#8cf8af" points="197.5041,-190.4046 202.4166,-180.6006 197.7123,-185.4089 197.9205,-180.4133 197.9205,-180.4133 197.9205,-180.4133 197.7123,-185.4089 193.4244,-180.2259 197.5041,-190.4046 197.5041,-190.4046"/>
</g>
<!-- Career -->
<g id="node5" class="node">
<title>Career</title>
<ellipse fill="none" stroke="#000000" cx="589.6877" cy="-234" rx="33.8422" ry="18"/>
<text text-anchor="middle" x="589.6877" y="-229.8" font-family="Times,serif" font-size="14.00" fill="#000000">Career</text>
</g>
<!-- User -->
<g id="node16" class="node">
<title>User</title>
<ellipse fill="none" stroke="#000000" cx="471.6877" cy="-162" rx="27" ry="18"/>
<text text-anchor="middle" x="471.6877" y="-157.8" font-family="Times,serif" font-size="14.00" fill="#000000">User</text>
</g>
<!-- Career&#45;&gt;User -->
<g id="edge4" class="edge">
<title>Career&#45;&gt;User</title>
<path fill="none" stroke="#a8feb1" d="M558.8547,-215.1866C540.8332,-204.1904 518.2305,-190.399 500.5576,-179.6155"/>
<polygon fill="#a8feb1" stroke="#a8feb1" points="558.9564,-215.2487 565.1489,-224.2987 563.2246,-217.853 567.4928,-220.4574 567.4928,-220.4574 567.4928,-220.4574 563.2246,-217.853 569.8368,-216.616 558.9564,-215.2487 558.9564,-215.2487"/>
<polygon fill="#a8feb1" stroke="#a8feb1" points="500.352,-179.4901 494.1595,-170.44 496.0838,-176.8857 491.8156,-174.2814 491.8156,-174.2814 491.8156,-174.2814 496.0838,-176.8857 489.4717,-178.1228 500.352,-179.4901 500.352,-179.4901"/>
</g>
<!-- UserCareer -->
<g id="node17" class="node">
<title>UserCareer</title>
<ellipse fill="none" stroke="#000000" cx="589.6877" cy="-90" rx="50.2379" ry="18"/>
<text text-anchor="middle" x="589.6877" y="-85.8" font-family="Times,serif" font-size="14.00" fill="#000000">UserCareer</text>
</g>
<!-- Career&#45;&gt;UserCareer -->
<g id="edge3" class="edge">
<title>Career&#45;&gt;UserCareer</title>
<path fill="none" stroke="#dfd308" d="M589.6877,-207.7351C589.6877,-182.4642 589.6877,-144.3666 589.6877,-118.4018"/>
<ellipse fill="none" stroke="#dfd308" cx="589.6878" cy="-211.7623" rx="4" ry="4"/>
<polygon fill="#dfd308" stroke="#dfd308" points="589.6878,-118.0896 594.1877,-108.0896 589.6878,-113.0896 589.6877,-108.0896 589.6877,-108.0896 589.6877,-108.0896 589.6878,-113.0896 585.1877,-108.0897 589.6878,-118.0896 589.6878,-118.0896"/>
</g>
<!-- City -->
<g id="node6" class="node">
<title>City</title>
<ellipse fill="none" stroke="#000000" cx="260.6877" cy="-306" rx="27" ry="18"/>
<text text-anchor="middle" x="260.6877" y="-301.8" font-family="Times,serif" font-size="14.00" fill="#000000">City</text>
</g>
<!-- Company -->
<g id="node7" class="node">
<title>Company</title>
<ellipse fill="none" stroke="#000000" cx="105.6877" cy="-234" rx="44.4923" ry="18"/>
<text text-anchor="middle" x="105.6877" y="-229.8" font-family="Times,serif" font-size="14.00" fill="#000000">Company</text>
</g>
<!-- City&#45;&gt;Company -->
<g id="edge6" class="edge">
<title>City&#45;&gt;Company</title>
<path fill="none" stroke="#f5ec4c" d="M231.0681,-292.2412C206.3695,-280.7683 171.0031,-264.34 144.1247,-251.8546"/>
<ellipse fill="none" stroke="#f5ec4c" cx="234.8523" cy="-293.999" rx="4" ry="4"/>
<polygon fill="#f5ec4c" stroke="#f5ec4c" points="144.0722,-251.8303 136.8987,-243.5362 139.5376,-249.7238 135.0029,-247.6174 135.0029,-247.6174 135.0029,-247.6174 139.5376,-249.7238 133.1071,-251.6986 144.0722,-251.8303 144.0722,-251.8303"/>
</g>
<!-- City&#45;&gt;User -->
<g id="edge5" class="edge">
<title>City&#45;&gt;User</title>
<path fill="none" stroke="#2eb6e7" d="M294.1953,-297.7535C323.2301,-289.4825 365.379,-274.6847 396.6877,-252 420.9686,-234.4073 442.1561,-207.2307 455.7608,-187.3424"/>
<ellipse fill="none" stroke="#2eb6e7" cx="290.2292" cy="-298.8491" rx="4" ry="4"/>
<polygon fill="#2eb6e7" stroke="#2eb6e7" points="455.9206,-187.1023 465.2079,-181.2716 458.6913,-182.9402 461.462,-178.778 461.462,-178.778 461.462,-178.778 458.6913,-182.9402 457.716,-176.2844 455.9206,-187.1023 455.9206,-187.1023"/>
</g>
<!-- Company&#45;&gt;Publication -->
<g id="edge7" class="edge">
<title>Company&#45;&gt;Publication</title>
<path fill="none" stroke="#ef5bb4" d="M133.0299,-212.8319C144.4445,-203.9947 157.7258,-193.7125 169.3448,-184.7171"/>
<ellipse fill="none" stroke="#ef5bb4" cx="129.4904" cy="-215.5722" rx="4" ry="4"/>
<polygon fill="#ef5bb4" stroke="#ef5bb4" points="169.5537,-184.5554 180.2158,-181.9919 173.5073,-181.4945 177.461,-178.4336 177.461,-178.4336 177.461,-178.4336 173.5073,-181.4945 174.7062,-174.8754 169.5537,-184.5554 169.5537,-184.5554"/>
</g>
<!-- DiscProfile -->
<g id="node8" class="node">
<title>DiscProfile</title>
<ellipse fill="none" stroke="#000000" cx="471.6877" cy="-90" rx="49.805" ry="18"/>
<text text-anchor="middle" x="471.6877" y="-85.8" font-family="Times,serif" font-size="14.00" fill="#000000">DiscProfile</text>
</g>
<!-- Interest -->
<g id="node9" class="node">
<title>Interest</title>
<ellipse fill="none" stroke="#000000" cx="350.6877" cy="-234" rx="36.7489" ry="18"/>
<text text-anchor="middle" x="350.6877" y="-229.8" font-family="Times,serif" font-size="14.00" fill="#000000">Interest</text>
</g>
<!-- InterestPublication -->
<g id="node10" class="node">
<title>InterestPublication</title>
<ellipse fill="none" stroke="#000000" cx="202.6877" cy="-90" rx="76.8157" ry="18"/>
<text text-anchor="middle" x="202.6877" y="-85.8" font-family="Times,serif" font-size="14.00" fill="#000000">InterestPublication</text>
</g>
<!-- Interest&#45;&gt;InterestPublication -->
<g id="edge10" class="edge">
<title>Interest&#45;&gt;InterestPublication</title>
<path fill="none" stroke="#ddda65" d="M328.0694,-211.993C301.2179,-185.8672 256.5423,-142.399 228.4017,-115.019"/>
<ellipse fill="none" stroke="#ddda65" cx="331.131" cy="-214.9719" rx="4" ry="4"/>
<polygon fill="#ddda65" stroke="#ddda65" points="228.0989,-114.7244 224.0698,-104.5255 224.5153,-111.2376 220.9316,-107.7508 220.9316,-107.7508 220.9316,-107.7508 224.5153,-111.2376 217.7935,-110.9761 228.0989,-114.7244 228.0989,-114.7244"/>
</g>
<!-- Interest&#45;&gt;Publication -->
<g id="edge11" class="edge">
<title>Interest&#45;&gt;Publication</title>
<path fill="none" stroke="#307200" d="M315.0272,-217.1082C291.964,-206.1835 261.9219,-191.953 238.1435,-180.6896"/>
<polygon fill="#307200" stroke="#307200" points="315.174,-217.1776 322.285,-225.5254 319.6927,-219.3181 324.2114,-221.4586 324.2114,-221.4586 324.2114,-221.4586 319.6927,-219.3181 326.1378,-217.3917 315.174,-217.1776 315.174,-217.1776"/>
<polygon fill="#307200" stroke="#307200" points="238.0737,-180.6566 230.9627,-172.3088 233.555,-178.5161 229.0363,-176.3756 229.0363,-176.3756 229.0363,-176.3756 233.555,-178.5161 227.1099,-180.4425 238.0737,-180.6566 238.0737,-180.6566"/>
</g>
<!-- Interest&#45;&gt;User -->
<g id="edge9" class="edge">
<title>Interest&#45;&gt;User</title>
<path fill="none" stroke="#98217e" d="M382.8876,-214.8398C401.3643,-203.8453 424.3869,-190.146 442.3598,-179.4514"/>
<polygon fill="#98217e" stroke="#98217e" points="382.6114,-215.004 371.7166,-216.2505 378.3146,-217.5609 374.0178,-220.1177 374.0178,-220.1177 374.0178,-220.1177 378.3146,-217.5609 376.3189,-223.9848 382.6114,-215.004 382.6114,-215.004"/>
<polygon fill="#98217e" stroke="#98217e" points="442.6536,-179.2765 453.5484,-178.0301 446.9505,-176.7197 451.2473,-174.1629 451.2473,-174.1629 451.2473,-174.1629 446.9505,-176.7197 448.9462,-170.2958 442.6536,-179.2765 442.6536,-179.2765"/>
</g>
<!-- UserInterest -->
<g id="node18" class="node">
<title>UserInterest</title>
<ellipse fill="none" stroke="#000000" cx="350.6877" cy="-90" rx="53.1453" ry="18"/>
<text text-anchor="middle" x="350.6877" y="-85.8" font-family="Times,serif" font-size="14.00" fill="#000000">UserInterest</text>
</g>
<!-- Interest&#45;&gt;UserInterest -->
<g id="edge8" class="edge">
<title>Interest&#45;&gt;UserInterest</title>
<path fill="none" stroke="#43b156" d="M350.6877,-207.7351C350.6877,-182.4642 350.6877,-144.3666 350.6877,-118.4018"/>
<ellipse fill="none" stroke="#43b156" cx="350.6878" cy="-211.7623" rx="4" ry="4"/>
<polygon fill="#43b156" stroke="#43b156" points="350.6878,-118.0896 355.1877,-108.0896 350.6878,-113.0896 350.6877,-108.0896 350.6877,-108.0896 350.6877,-108.0896 350.6878,-113.0896 346.1877,-108.0897 350.6878,-118.0896 350.6878,-118.0896"/>
</g>
<!-- Publication&#45;&gt;Application -->
<g id="edge13" class="edge">
<title>Publication&#45;&gt;Application</title>
<path fill="none" stroke="#2f7688" d="M162.255,-143.6562C141.5187,-133.2156 115.5523,-120.1416 94.4429,-109.5131"/>
<ellipse fill="none" stroke="#2f7688" cx="165.8318" cy="-145.4571" rx="4" ry="4"/>
<polygon fill="#2f7688" stroke="#2f7688" points="94.355,-109.4689 87.447,-100.9524 89.8891,-107.2203 85.4233,-104.9717 85.4233,-104.9717 85.4233,-104.9717 89.8891,-107.2203 83.3995,-108.991 94.355,-109.4689 94.355,-109.4689"/>
</g>
<!-- Publication&#45;&gt;InterestPublication -->
<g id="edge12" class="edge">
<title>Publication&#45;&gt;InterestPublication</title>
<path fill="none" stroke="#8a0f22" d="M200.1425,-135.8144C200.4501,-130.2775 200.7763,-124.4053 201.0889,-118.7785"/>
<ellipse fill="none" stroke="#8a0f22" cx="199.919" cy="-139.8375" rx="4" ry="4"/>
<polygon fill="#8a0f22" stroke="#8a0f22" points="201.11,-118.3979 206.1579,-108.6629 201.3874,-113.4056 201.6648,-108.4133 201.6648,-108.4133 201.6648,-108.4133 201.3874,-113.4056 197.1717,-108.1636 201.11,-118.3979 201.11,-118.3979"/>
</g>
<!-- Region -->
<g id="node13" class="node">
<title>Region</title>
<ellipse fill="none" stroke="#000000" cx="260.6877" cy="-396.5" rx="35.806" ry="18"/>
<text text-anchor="middle" x="260.6877" y="-392.3" font-family="Times,serif" font-size="14.00" fill="#000000">Region</text>
</g>
<!-- Region&#45;&gt;City -->
<g id="edge14" class="edge">
<title>Region&#45;&gt;City</title>
<path fill="none" stroke="#b011f3" d="M260.6877,-369.9687C260.6877,-358.8402 260.6877,-345.878 260.6877,-334.5429"/>
<ellipse fill="none" stroke="#b011f3" cx="260.6878" cy="-374.186" rx="4" ry="4"/>
<polygon fill="#b011f3" stroke="#b011f3" points="260.6878,-334.2868 265.1877,-324.2867 260.6878,-329.2868 260.6877,-324.2868 260.6877,-324.2868 260.6877,-324.2868 260.6878,-329.2868 256.1877,-324.2868 260.6878,-334.2868 260.6878,-334.2868"/>
</g>
<!-- Type -->
<g id="node14" class="node">
<title>Type</title>
<ellipse fill="none" stroke="#000000" cx="268.6877" cy="-234" rx="27.8207" ry="18"/>
<text text-anchor="middle" x="268.6877" y="-229.8" font-family="Times,serif" font-size="14.00" fill="#000000">Type</text>
</g>
<!-- Type&#45;&gt;Publication -->
<g id="edge15" class="edge">
<title>Type&#45;&gt;Publication</title>
<path fill="none" stroke="#6d7917" d="M248.2562,-212.9847C240.1304,-204.6267 230.7293,-194.957 222.3129,-186.3001"/>
<ellipse fill="none" stroke="#6d7917" cx="251.0542" cy="-215.8627" rx="4" ry="4"/>
<polygon fill="#6d7917" stroke="#6d7917" points="222.1977,-186.1817 218.4534,-175.8748 218.7123,-182.5967 215.2269,-179.0117 215.2269,-179.0117 215.2269,-179.0117 218.7123,-182.5967 212.0004,-182.1486 222.1977,-186.1817 222.1977,-186.1817"/>
</g>
<!-- University -->
<g id="node15" class="node">
<title>University</title>
<ellipse fill="none" stroke="#000000" cx="490.6877" cy="-234" rx="47.3823" ry="18"/>
<text text-anchor="middle" x="490.6877" y="-229.8" font-family="Times,serif" font-size="14.00" fill="#000000">University</text>
</g>
<!-- University&#45;&gt;User -->
<g id="edge16" class="edge">
<title>University&#45;&gt;User</title>
<path fill="none" stroke="#ec0402" d="M483.8183,-207.9684C482.2445,-202.0044 480.5661,-195.6443 478.9753,-189.6162"/>
<ellipse fill="none" stroke="#ec0402" cx="484.8726" cy="-211.9638" rx="4" ry="4"/>
<polygon fill="#ec0402" stroke="#ec0402" points="478.9665,-189.5824 480.7659,-178.7652 477.6907,-184.7479 476.4149,-179.9134 476.4149,-179.9134 476.4149,-179.9134 477.6907,-184.7479 472.0638,-181.0616 478.9665,-189.5824 478.9665,-189.5824"/>
</g>
<!-- User&#45;&gt;DiscProfile -->
<g id="edge19" class="edge">
<title>User&#45;&gt;DiscProfile</title>
<path fill="none" stroke="#2a4719" d="M471.6877,-135.8144C471.6877,-129.5677 471.6877,-122.894 471.6877,-116.6276"/>
<ellipse fill="none" stroke="#2a4719" cx="471.6878" cy="-139.8314" rx="4" ry="4"/>
<ellipse fill="#2a4719" stroke="#2a4719" cx="471.6878" cy="-112.4133" rx="4" ry="4"/>
</g>
<!-- User&#45;&gt;UserCareer -->
<g id="edge17" class="edge">
<title>User&#45;&gt;UserCareer</title>
<path fill="none" stroke="#7f2bc6" d="M498.6256,-145.5634C515.552,-135.2354 537.5349,-121.8221 555.6611,-110.762"/>
<ellipse fill="none" stroke="#7f2bc6" cx="495.1194" cy="-147.7027" rx="4" ry="4"/>
<polygon fill="#7f2bc6" stroke="#7f2bc6" points="555.6742,-110.7541 566.5545,-109.3867 559.9424,-108.1497 564.2106,-105.5454 564.2106,-105.5454 564.2106,-105.5454 559.9424,-108.1497 561.8667,-101.704 555.6742,-110.7541 555.6742,-110.7541"/>
</g>
<!-- User&#45;&gt;UserInterest -->
<g id="edge18" class="edge">
<title>User&#45;&gt;UserInterest</title>
<path fill="none" stroke="#e5f5b4" d="M444.3969,-145.7608C427.1751,-135.5131 404.7512,-122.17 386.1571,-111.1057"/>
<ellipse fill="none" stroke="#e5f5b4" cx="447.9976" cy="-147.9034" rx="4" ry="4"/>
<polygon fill="#e5f5b4" stroke="#e5f5b4" points="385.97,-110.9944 379.6774,-102.0136 381.6731,-108.4376 377.3763,-105.8808 377.3763,-105.8808 377.3763,-105.8808 381.6731,-108.4376 375.0751,-109.7479 385.97,-110.9944 385.97,-110.9944"/>
</g>
</g>
</svg>
