<?xml version="1.0" encoding="UTF-8" standalone="no"?>
<!DOCTYPE svg PUBLIC "-//W3C//DTD SVG 1.1//EN"
 "http://www.w3.org/Graphics/SVG/1.1/DTD/svg11.dtd">
<!-- Generated by graphviz version 2.38.0 (20140413.2041)
 -->
<!-- Title: models_diagram Pages: 1 -->
<svg width="1376pt" height="1468pt"
 viewBox="0.00 0.00 1376.00 1468.00" xmlns="http://www.w3.org/2000/svg" xmlns:xlink="http://www.w3.org/1999/xlink">
<g id="graph0" class="graph" transform="scale(1 1) rotate(0) translate(4 1464)">
<title>models_diagram</title>
<polygon fill="none" stroke="none" points="-4,4 -4,-1464 1372,-1464 1372,4 -4,4"/>
<!-- _diagram_info -->
<g id="node1" class="node"><title>_diagram_info</title>
<text text-anchor="start" x="392" y="-1438.6" font-family="Times,serif" font-size="13.00">Models diagram</text>
<text text-anchor="start" x="392" y="-1424.6" font-family="Times,serif" font-size="13.00">Date: Sep 21 2017 &#45; 10:17</text>
<text text-anchor="start" x="392" y="-1410.6" font-family="Times,serif" font-size="13.00">Migration version: 20170920184856</text>
<text text-anchor="start" x="392" y="-1396.6" font-family="Times,serif" font-size="13.00">Generated by RailRoady 1.5.3</text>
<text text-anchor="start" x="392" y="-1382.6" font-family="Times,serif" font-size="13.00">http://railroady.prestonlee.com</text>
</g>
<!-- Type -->
<g id="node2" class="node"><title>Type</title>
<path fill="none" stroke="black" d="M1136,-572C1136,-572 1356,-572 1356,-572 1362,-572 1368,-578 1368,-584 1368,-584 1368,-651 1368,-651 1368,-657 1362,-663 1356,-663 1356,-663 1136,-663 1136,-663 1130,-663 1124,-657 1124,-651 1124,-651 1124,-584 1124,-584 1124,-578 1130,-572 1136,-572"/>
<text text-anchor="middle" x="1246" y="-647.8" font-family="Times,serif" font-size="14.00">Type</text>
<polyline fill="none" stroke="black" points="1124,-640 1368,-640 "/>
<text text-anchor="start" x="1132" y="-624.8" font-family="Times,serif" font-size="14.00">id :integer</text>
<text text-anchor="start" x="1132" y="-609.8" font-family="Times,serif" font-size="14.00">nombre :character varying</text>
<text text-anchor="start" x="1132" y="-594.8" font-family="Times,serif" font-size="14.00">created_at :timestamp without time zone</text>
<text text-anchor="start" x="1132" y="-579.8" font-family="Times,serif" font-size="14.00">updated_at :timestamp without time zone</text>
</g>
<!-- Publication -->
<g id="node12" class="node"><title>Publication</title>
<path fill="none" stroke="black" d="M724,-316.5C724,-316.5 944,-316.5 944,-316.5 950,-316.5 956,-322.5 956,-328.5 956,-328.5 956,-500.5 956,-500.5 956,-506.5 950,-512.5 944,-512.5 944,-512.5 724,-512.5 724,-512.5 718,-512.5 712,-506.5 712,-500.5 712,-500.5 712,-328.5 712,-328.5 712,-322.5 718,-316.5 724,-316.5"/>
<text text-anchor="middle" x="834" y="-497.3" font-family="Times,serif" font-size="14.00">Publication</text>
<polyline fill="none" stroke="black" points="712,-489.5 956,-489.5 "/>
<text text-anchor="start" x="720" y="-474.3" font-family="Times,serif" font-size="14.00">id :integer</text>
<text text-anchor="start" x="720" y="-459.3" font-family="Times,serif" font-size="14.00">titulo :character varying</text>
<text text-anchor="start" x="720" y="-444.3" font-family="Times,serif" font-size="14.00">problema :text</text>
<text text-anchor="start" x="720" y="-429.3" font-family="Times,serif" font-size="14.00">limite :timestamp without time zone</text>
<text text-anchor="start" x="720" y="-414.3" font-family="Times,serif" font-size="14.00">description :text</text>
<text text-anchor="start" x="720" y="-399.3" font-family="Times,serif" font-size="14.00">premios :text</text>
<text text-anchor="start" x="720" y="-384.3" font-family="Times,serif" font-size="14.00">company_id :integer</text>
<text text-anchor="start" x="720" y="-369.3" font-family="Times,serif" font-size="14.00">area_id :integer</text>
<text text-anchor="start" x="720" y="-354.3" font-family="Times,serif" font-size="14.00">type_id :integer</text>
<text text-anchor="start" x="720" y="-339.3" font-family="Times,serif" font-size="14.00">created_at :timestamp without time zone</text>
<text text-anchor="start" x="720" y="-324.3" font-family="Times,serif" font-size="14.00">updated_at :timestamp without time zone</text>
</g>
<!-- Type&#45;&gt;Publication -->
<g id="edge1" class="edge"><title>Type&#45;&gt;Publication</title>
<path fill="none" stroke="#a7b7c2" d="M1153.45,-568.344C1140.57,-561.778 1127.48,-555.177 1115,-549 1066.34,-524.914 1012.57,-499.16 965.205,-476.761"/>
<ellipse fill="none" stroke="#a7b7c2" cx="1157.02" cy="-570.166" rx="4.00002" ry="4.00002"/>
<polygon fill="#a7b7c2" stroke="#a7b7c2" points="965.172,-476.745 958.052,-468.405 960.651,-474.609 956.13,-472.474 956.13,-472.474 956.13,-472.474 960.651,-474.609 954.208,-476.542 965.172,-476.745 965.172,-476.745"/>
</g>
<!-- DiscProfile -->
<g id="node3" class="node"><title>DiscProfile</title>
<path fill="none" stroke="black" d="M574,-549.5C574,-549.5 794,-549.5 794,-549.5 800,-549.5 806,-555.5 806,-561.5 806,-561.5 806,-673.5 806,-673.5 806,-679.5 800,-685.5 794,-685.5 794,-685.5 574,-685.5 574,-685.5 568,-685.5 562,-679.5 562,-673.5 562,-673.5 562,-561.5 562,-561.5 562,-555.5 568,-549.5 574,-549.5"/>
<text text-anchor="middle" x="684" y="-670.3" font-family="Times,serif" font-size="14.00">DiscProfile</text>
<polyline fill="none" stroke="black" points="562,-662.5 806,-662.5 "/>
<text text-anchor="start" x="570" y="-647.3" font-family="Times,serif" font-size="14.00">id :integer</text>
<text text-anchor="start" x="570" y="-632.3" font-family="Times,serif" font-size="14.00">decision :integer</text>
<text text-anchor="start" x="570" y="-617.3" font-family="Times,serif" font-size="14.00">interaccion :integer</text>
<text text-anchor="start" x="570" y="-602.3" font-family="Times,serif" font-size="14.00">serenidad :integer</text>
<text text-anchor="start" x="570" y="-587.3" font-family="Times,serif" font-size="14.00">cumplimiento :integer</text>
<text text-anchor="start" x="570" y="-572.3" font-family="Times,serif" font-size="14.00">created_at :timestamp without time zone</text>
<text text-anchor="start" x="570" y="-557.3" font-family="Times,serif" font-size="14.00">updated_at :timestamp without time zone</text>
</g>
<!-- Message -->
<g id="node4" class="node"><title>Message</title>
<path fill="none" stroke="black" d="M724,-0.5C724,-0.5 944,-0.5 944,-0.5 950,-0.5 956,-6.5 956,-12.5 956,-12.5 956,-109.5 956,-109.5 956,-115.5 950,-121.5 944,-121.5 944,-121.5 724,-121.5 724,-121.5 718,-121.5 712,-115.5 712,-109.5 712,-109.5 712,-12.5 712,-12.5 712,-6.5 718,-0.5 724,-0.5"/>
<text text-anchor="middle" x="834" y="-106.3" font-family="Times,serif" font-size="14.00">Message</text>
<polyline fill="none" stroke="black" points="712,-98.5 956,-98.5 "/>
<text text-anchor="start" x="720" y="-83.3" font-family="Times,serif" font-size="14.00">id :integer</text>
<text text-anchor="start" x="720" y="-68.3" font-family="Times,serif" font-size="14.00">application_id :integer</text>
<text text-anchor="start" x="720" y="-53.3" font-family="Times,serif" font-size="14.00">nombre :character varying</text>
<text text-anchor="start" x="720" y="-38.3" font-family="Times,serif" font-size="14.00">mensaje :text</text>
<text text-anchor="start" x="720" y="-23.3" font-family="Times,serif" font-size="14.00">created_at :timestamp without time zone</text>
<text text-anchor="start" x="720" y="-8.3" font-family="Times,serif" font-size="14.00">updated_at :timestamp without time zone</text>
</g>
<!-- Career -->
<g id="node5" class="node"><title>Career</title>
<path fill="none" stroke="black" d="M40,-1233C40,-1233 260,-1233 260,-1233 266,-1233 272,-1239 272,-1245 272,-1245 272,-1312 272,-1312 272,-1318 266,-1324 260,-1324 260,-1324 40,-1324 40,-1324 34,-1324 28,-1318 28,-1312 28,-1312 28,-1245 28,-1245 28,-1239 34,-1233 40,-1233"/>
<text text-anchor="middle" x="150" y="-1308.8" font-family="Times,serif" font-size="14.00">Career</text>
<polyline fill="none" stroke="black" points="28,-1301 272,-1301 "/>
<text text-anchor="start" x="36" y="-1285.8" font-family="Times,serif" font-size="14.00">id :integer</text>
<text text-anchor="start" x="36" y="-1270.8" font-family="Times,serif" font-size="14.00">nombre :character varying</text>
<text text-anchor="start" x="36" y="-1255.8" font-family="Times,serif" font-size="14.00">created_at :timestamp without time zone</text>
<text text-anchor="start" x="36" y="-1240.8" font-family="Times,serif" font-size="14.00">updated_at :timestamp without time zone</text>
</g>
<!-- User -->
<g id="node7" class="node"><title>User</title>
<path fill="none" stroke="black" d="M272.5,-722.5C272.5,-722.5 561.5,-722.5 561.5,-722.5 567.5,-722.5 573.5,-728.5 573.5,-734.5 573.5,-734.5 573.5,-1176.5 573.5,-1176.5 573.5,-1182.5 567.5,-1188.5 561.5,-1188.5 561.5,-1188.5 272.5,-1188.5 272.5,-1188.5 266.5,-1188.5 260.5,-1182.5 260.5,-1176.5 260.5,-1176.5 260.5,-734.5 260.5,-734.5 260.5,-728.5 266.5,-722.5 272.5,-722.5"/>
<text text-anchor="middle" x="417" y="-1173.3" font-family="Times,serif" font-size="14.00">User</text>
<polyline fill="none" stroke="black" points="260.5,-1165.5 573.5,-1165.5 "/>
<text text-anchor="start" x="268.5" y="-1150.3" font-family="Times,serif" font-size="14.00">id :integer</text>
<text text-anchor="start" x="268.5" y="-1135.3" font-family="Times,serif" font-size="14.00">email :character varying</text>
<text text-anchor="start" x="268.5" y="-1120.3" font-family="Times,serif" font-size="14.00">encrypted_password :character varying</text>
<text text-anchor="start" x="268.5" y="-1105.3" font-family="Times,serif" font-size="14.00">rut :character varying</text>
<text text-anchor="start" x="268.5" y="-1090.3" font-family="Times,serif" font-size="14.00">nombre :character varying</text>
<text text-anchor="start" x="268.5" y="-1075.3" font-family="Times,serif" font-size="14.00">paterno :character varying</text>
<text text-anchor="start" x="268.5" y="-1060.3" font-family="Times,serif" font-size="14.00">materno :character varying</text>
<text text-anchor="start" x="268.5" y="-1045.3" font-family="Times,serif" font-size="14.00">fechanac :date</text>
<text text-anchor="start" x="268.5" y="-1030.3" font-family="Times,serif" font-size="14.00">genero :character varying</text>
<text text-anchor="start" x="268.5" y="-1015.3" font-family="Times,serif" font-size="14.00">reset_password_token :character varying</text>
<text text-anchor="start" x="268.5" y="-1000.3" font-family="Times,serif" font-size="14.00">reset_password_sent_at :timestamp without time zone</text>
<text text-anchor="start" x="268.5" y="-985.3" font-family="Times,serif" font-size="14.00">remember_created_at :timestamp without time zone</text>
<text text-anchor="start" x="268.5" y="-970.3" font-family="Times,serif" font-size="14.00">sign_in_count :integer</text>
<text text-anchor="start" x="268.5" y="-955.3" font-family="Times,serif" font-size="14.00">current_sign_in_at :timestamp without time zone</text>
<text text-anchor="start" x="268.5" y="-940.3" font-family="Times,serif" font-size="14.00">last_sign_in_at :timestamp without time zone</text>
<text text-anchor="start" x="268.5" y="-925.3" font-family="Times,serif" font-size="14.00">current_sign_in_ip :inet</text>
<text text-anchor="start" x="268.5" y="-910.3" font-family="Times,serif" font-size="14.00">last_sign_in_ip :inet</text>
<text text-anchor="start" x="268.5" y="-895.3" font-family="Times,serif" font-size="14.00">confirmation_token :character varying</text>
<text text-anchor="start" x="268.5" y="-880.3" font-family="Times,serif" font-size="14.00">confirmed_at :timestamp without time zone</text>
<text text-anchor="start" x="268.5" y="-865.3" font-family="Times,serif" font-size="14.00">confirmation_sent_at :timestamp without time zone</text>
<text text-anchor="start" x="268.5" y="-850.3" font-family="Times,serif" font-size="14.00">unconfirmed_email :character varying</text>
<text text-anchor="start" x="268.5" y="-835.3" font-family="Times,serif" font-size="14.00">failed_attempts :integer</text>
<text text-anchor="start" x="268.5" y="-820.3" font-family="Times,serif" font-size="14.00">unlock_token :character varying</text>
<text text-anchor="start" x="268.5" y="-805.3" font-family="Times,serif" font-size="14.00">locked_at :timestamp without time zone</text>
<text text-anchor="start" x="268.5" y="-790.3" font-family="Times,serif" font-size="14.00">created_at :timestamp without time zone</text>
<text text-anchor="start" x="268.5" y="-775.3" font-family="Times,serif" font-size="14.00">updated_at :timestamp without time zone</text>
<text text-anchor="start" x="268.5" y="-760.3" font-family="Times,serif" font-size="14.00">city_id :integer</text>
<text text-anchor="start" x="268.5" y="-745.3" font-family="Times,serif" font-size="14.00">university_id :integer</text>
<text text-anchor="start" x="268.5" y="-730.3" font-family="Times,serif" font-size="14.00">disc_profile_id :integer</text>
</g>
<!-- Career&#45;&gt;User -->
<g id="edge3" class="edge"><title>Career&#45;&gt;User</title>
<path fill="none" stroke="#e01a4a" d="M193.626,-1225.05C210.851,-1204.34 231.803,-1179.15 253.893,-1152.59"/>
<polygon fill="#e01a4a" stroke="#e01a4a" points="193.52,-1225.18 183.666,-1229.99 190.323,-1229.02 187.125,-1232.87 187.125,-1232.87 187.125,-1232.87 190.323,-1229.02 190.585,-1235.74 193.52,-1225.18 193.52,-1225.18"/>
<polygon fill="#e01a4a" stroke="#e01a4a" points="254.071,-1152.38 263.926,-1147.57 257.269,-1148.54 260.466,-1144.69 260.466,-1144.69 260.466,-1144.69 257.269,-1148.54 257.007,-1141.81 254.071,-1152.38 254.071,-1152.38"/>
</g>
<!-- UserCareer -->
<g id="node13" class="node"><title>UserCareer</title>
<path fill="none" stroke="black" d="M12,-564.5C12,-564.5 232,-564.5 232,-564.5 238,-564.5 244,-570.5 244,-576.5 244,-576.5 244,-658.5 244,-658.5 244,-664.5 238,-670.5 232,-670.5 232,-670.5 12,-670.5 12,-670.5 6,-670.5 0,-664.5 0,-658.5 0,-658.5 0,-576.5 0,-576.5 0,-570.5 6,-564.5 12,-564.5"/>
<text text-anchor="middle" x="122" y="-655.3" font-family="Times,serif" font-size="14.00">UserCareer</text>
<polyline fill="none" stroke="black" points="0,-647.5 244,-647.5 "/>
<text text-anchor="start" x="8" y="-632.3" font-family="Times,serif" font-size="14.00">id :integer</text>
<text text-anchor="start" x="8" y="-617.3" font-family="Times,serif" font-size="14.00">user_id :integer</text>
<text text-anchor="start" x="8" y="-602.3" font-family="Times,serif" font-size="14.00">career_id :integer</text>
<text text-anchor="start" x="8" y="-587.3" font-family="Times,serif" font-size="14.00">created_at :timestamp without time zone</text>
<text text-anchor="start" x="8" y="-572.3" font-family="Times,serif" font-size="14.00">updated_at :timestamp without time zone</text>
</g>
<!-- Career&#45;&gt;UserCareer -->
<g id="edge2" class="edge"><title>Career&#45;&gt;UserCareer</title>
<path fill="none" stroke="#86e0f0" d="M147.759,-1224.75C142.642,-1104.33 130.123,-809.683 124.642,-680.691"/>
<ellipse fill="none" stroke="#86e0f0" cx="147.939" cy="-1228.98" rx="4" ry="4"/>
<polygon fill="#86e0f0" stroke="#86e0f0" points="124.637,-680.573 128.709,-670.391 124.425,-675.578 124.213,-670.582 124.213,-670.582 124.213,-670.582 124.425,-675.578 119.717,-670.773 124.637,-680.573 124.637,-680.573"/>
</g>
<!-- Company -->
<g id="node6" class="node"><title>Company</title>
<path fill="none" stroke="black" d="M653.5,-737.5C653.5,-737.5 942.5,-737.5 942.5,-737.5 948.5,-737.5 954.5,-743.5 954.5,-749.5 954.5,-749.5 954.5,-1161.5 954.5,-1161.5 954.5,-1167.5 948.5,-1173.5 942.5,-1173.5 942.5,-1173.5 653.5,-1173.5 653.5,-1173.5 647.5,-1173.5 641.5,-1167.5 641.5,-1161.5 641.5,-1161.5 641.5,-749.5 641.5,-749.5 641.5,-743.5 647.5,-737.5 653.5,-737.5"/>
<text text-anchor="middle" x="798" y="-1158.3" font-family="Times,serif" font-size="14.00">Company</text>
<polyline fill="none" stroke="black" points="641.5,-1150.5 954.5,-1150.5 "/>
<text text-anchor="start" x="649.5" y="-1135.3" font-family="Times,serif" font-size="14.00">id :integer</text>
<text text-anchor="start" x="649.5" y="-1120.3" font-family="Times,serif" font-size="14.00">email :character varying</text>
<text text-anchor="start" x="649.5" y="-1105.3" font-family="Times,serif" font-size="14.00">encrypted_password :character varying</text>
<text text-anchor="start" x="649.5" y="-1090.3" font-family="Times,serif" font-size="14.00">rut :character varying</text>
<text text-anchor="start" x="649.5" y="-1075.3" font-family="Times,serif" font-size="14.00">razon :character varying</text>
<text text-anchor="start" x="649.5" y="-1060.3" font-family="Times,serif" font-size="14.00">direccion :character varying</text>
<text text-anchor="start" x="649.5" y="-1045.3" font-family="Times,serif" font-size="14.00">rubro :character varying</text>
<text text-anchor="start" x="649.5" y="-1030.3" font-family="Times,serif" font-size="14.00">telefono :integer</text>
<text text-anchor="start" x="649.5" y="-1015.3" font-family="Times,serif" font-size="14.00">resumen :text</text>
<text text-anchor="start" x="649.5" y="-1000.3" font-family="Times,serif" font-size="14.00">reset_password_token :character varying</text>
<text text-anchor="start" x="649.5" y="-985.3" font-family="Times,serif" font-size="14.00">reset_password_sent_at :timestamp without time zone</text>
<text text-anchor="start" x="649.5" y="-970.3" font-family="Times,serif" font-size="14.00">remember_created_at :timestamp without time zone</text>
<text text-anchor="start" x="649.5" y="-955.3" font-family="Times,serif" font-size="14.00">sign_in_count :integer</text>
<text text-anchor="start" x="649.5" y="-940.3" font-family="Times,serif" font-size="14.00">current_sign_in_at :timestamp without time zone</text>
<text text-anchor="start" x="649.5" y="-925.3" font-family="Times,serif" font-size="14.00">last_sign_in_at :timestamp without time zone</text>
<text text-anchor="start" x="649.5" y="-910.3" font-family="Times,serif" font-size="14.00">current_sign_in_ip :inet</text>
<text text-anchor="start" x="649.5" y="-895.3" font-family="Times,serif" font-size="14.00">last_sign_in_ip :inet</text>
<text text-anchor="start" x="649.5" y="-880.3" font-family="Times,serif" font-size="14.00">confirmation_token :character varying</text>
<text text-anchor="start" x="649.5" y="-865.3" font-family="Times,serif" font-size="14.00">confirmed_at :timestamp without time zone</text>
<text text-anchor="start" x="649.5" y="-850.3" font-family="Times,serif" font-size="14.00">confirmation_sent_at :timestamp without time zone</text>
<text text-anchor="start" x="649.5" y="-835.3" font-family="Times,serif" font-size="14.00">unconfirmed_email :character varying</text>
<text text-anchor="start" x="649.5" y="-820.3" font-family="Times,serif" font-size="14.00">failed_attempts :integer</text>
<text text-anchor="start" x="649.5" y="-805.3" font-family="Times,serif" font-size="14.00">unlock_token :character varying</text>
<text text-anchor="start" x="649.5" y="-790.3" font-family="Times,serif" font-size="14.00">locked_at :timestamp without time zone</text>
<text text-anchor="start" x="649.5" y="-775.3" font-family="Times,serif" font-size="14.00">created_at :timestamp without time zone</text>
<text text-anchor="start" x="649.5" y="-760.3" font-family="Times,serif" font-size="14.00">updated_at :timestamp without time zone</text>
<text text-anchor="start" x="649.5" y="-745.3" font-family="Times,serif" font-size="14.00">city_id :integer</text>
</g>
<!-- Company&#45;&gt;Publication -->
<g id="edge4" class="edge"><title>Company&#45;&gt;Publication</title>
<path fill="none" stroke="#1fca86" d="M813.063,-728.971C817.833,-657.553 822.886,-581.9 826.833,-522.811"/>
<ellipse fill="none" stroke="#1fca86" cx="812.779" cy="-733.219" rx="4" ry="4"/>
<polygon fill="#1fca86" stroke="#1fca86" points="826.84,-522.703 831.996,-513.026 827.173,-517.715 827.506,-512.726 827.506,-512.726 827.506,-512.726 827.173,-517.715 823.016,-512.426 826.84,-522.703 826.84,-522.703"/>
</g>
<!-- User&#45;&gt;DiscProfile -->
<g id="edge8" class="edge"><title>User&#45;&gt;DiscProfile</title>
<path fill="none" stroke="#3b5891" d="M578.844,-750.832C595.345,-730.066 611.24,-710.063 625.458,-692.171"/>
<ellipse fill="none" stroke="#3b5891" cx="576.348" cy="-753.972" rx="4.00002" ry="4.00002"/>
<ellipse fill="#3b5891" stroke="#3b5891" cx="628.129" cy="-688.809" rx="4.00002" ry="4.00002"/>
</g>
<!-- Interest -->
<g id="node11" class="node"><title>Interest</title>
<path fill="none" stroke="black" d="M312,-572C312,-572 532,-572 532,-572 538,-572 544,-578 544,-584 544,-584 544,-651 544,-651 544,-657 538,-663 532,-663 532,-663 312,-663 312,-663 306,-663 300,-657 300,-651 300,-651 300,-584 300,-584 300,-578 306,-572 312,-572"/>
<text text-anchor="middle" x="422" y="-647.8" font-family="Times,serif" font-size="14.00">Interest</text>
<polyline fill="none" stroke="black" points="300,-640 544,-640 "/>
<text text-anchor="start" x="308" y="-624.8" font-family="Times,serif" font-size="14.00">id :integer</text>
<text text-anchor="start" x="308" y="-609.8" font-family="Times,serif" font-size="14.00">nombre :character varying</text>
<text text-anchor="start" x="308" y="-594.8" font-family="Times,serif" font-size="14.00">created_at :timestamp without time zone</text>
<text text-anchor="start" x="308" y="-579.8" font-family="Times,serif" font-size="14.00">updated_at :timestamp without time zone</text>
</g>
<!-- User&#45;&gt;Interest -->
<g id="edge7" class="edge"><title>User&#45;&gt;Interest</title>
<path fill="none" stroke="#a9f34d" d="M420.611,-711.874C420.816,-698.042 421.01,-685.056 421.183,-673.421"/>
<polygon fill="#a9f34d" stroke="#a9f34d" points="420.608,-712.054 415.96,-721.986 420.533,-717.053 420.459,-722.053 420.459,-722.053 420.459,-722.053 420.533,-717.053 424.959,-722.12 420.608,-712.054 420.608,-712.054"/>
<polygon fill="#a9f34d" stroke="#a9f34d" points="421.187,-673.129 425.835,-663.197 421.261,-668.13 421.336,-663.13 421.336,-663.13 421.336,-663.13 421.261,-668.13 416.836,-663.063 421.187,-673.129 421.187,-673.129"/>
</g>
<!-- User&#45;&gt;UserCareer -->
<g id="edge5" class="edge"><title>User&#45;&gt;UserCareer</title>
<path fill="none" stroke="#39fc4d" d="M254.872,-769.839C225.763,-736.684 197.422,-704.404 174.443,-678.232"/>
<ellipse fill="none" stroke="#39fc4d" cx="257.791" cy="-773.164" rx="4.00002" ry="4.00002"/>
<polygon fill="#39fc4d" stroke="#39fc4d" points="174.397,-678.179 171.181,-667.695 171.098,-674.422 167.799,-670.664 167.799,-670.664 167.799,-670.664 171.098,-674.422 164.418,-673.633 174.397,-678.179 174.397,-678.179"/>
</g>
<!-- UserInterest -->
<g id="node16" class="node"><title>UserInterest</title>
<path fill="none" stroke="black" d="M237,-361.5C237,-361.5 457,-361.5 457,-361.5 463,-361.5 469,-367.5 469,-373.5 469,-373.5 469,-455.5 469,-455.5 469,-461.5 463,-467.5 457,-467.5 457,-467.5 237,-467.5 237,-467.5 231,-467.5 225,-461.5 225,-455.5 225,-455.5 225,-373.5 225,-373.5 225,-367.5 231,-361.5 237,-361.5"/>
<text text-anchor="middle" x="347" y="-452.3" font-family="Times,serif" font-size="14.00">UserInterest</text>
<polyline fill="none" stroke="black" points="225,-444.5 469,-444.5 "/>
<text text-anchor="start" x="233" y="-429.3" font-family="Times,serif" font-size="14.00">id :integer</text>
<text text-anchor="start" x="233" y="-414.3" font-family="Times,serif" font-size="14.00">interest_id :integer</text>
<text text-anchor="start" x="233" y="-399.3" font-family="Times,serif" font-size="14.00">user_id :integer</text>
<text text-anchor="start" x="233" y="-384.3" font-family="Times,serif" font-size="14.00">created_at :timestamp without time zone</text>
<text text-anchor="start" x="233" y="-369.3" font-family="Times,serif" font-size="14.00">updated_at :timestamp without time zone</text>
</g>
<!-- User&#45;&gt;UserInterest -->
<g id="edge6" class="edge"><title>User&#45;&gt;UserInterest</title>
<path fill="none" stroke="#91beab" d="M298.426,-714.675C295.62,-705.096 293.122,-695.518 291,-686 277.749,-626.571 278.987,-608.692 291,-549 295.924,-524.53 305.456,-498.954 315.279,-476.813"/>
<ellipse fill="none" stroke="#91beab" cx="299.587" cy="-718.526" rx="4.00001" ry="4.00001"/>
<polygon fill="#91beab" stroke="#91beab" points="315.353,-476.65 323.59,-469.412 317.424,-472.099 319.494,-467.548 319.494,-467.548 319.494,-467.548 317.424,-472.099 315.398,-465.685 315.353,-476.65 315.353,-476.65"/>
</g>
<!-- ApplicationRecord -->
<g id="node8" class="node"><title>ApplicationRecord</title>
<ellipse fill="none" stroke="black" cx="955" cy="-1414" rx="77.1866" ry="18"/>
<text text-anchor="middle" x="955" y="-1410.3" font-family="Times,serif" font-size="14.00">ApplicationRecord</text>
</g>
<!-- Application -->
<g id="node9" class="node"><title>Application</title>
<path fill="none" stroke="black" d="M724,-158.5C724,-158.5 944,-158.5 944,-158.5 950,-158.5 956,-164.5 956,-170.5 956,-170.5 956,-267.5 956,-267.5 956,-273.5 950,-279.5 944,-279.5 944,-279.5 724,-279.5 724,-279.5 718,-279.5 712,-273.5 712,-267.5 712,-267.5 712,-170.5 712,-170.5 712,-164.5 718,-158.5 724,-158.5"/>
<text text-anchor="middle" x="834" y="-264.3" font-family="Times,serif" font-size="14.00">Application</text>
<polyline fill="none" stroke="black" points="712,-256.5 956,-256.5 "/>
<text text-anchor="start" x="720" y="-241.3" font-family="Times,serif" font-size="14.00">id :integer</text>
<text text-anchor="start" x="720" y="-226.3" font-family="Times,serif" font-size="14.00">user_id :integer</text>
<text text-anchor="start" x="720" y="-211.3" font-family="Times,serif" font-size="14.00">publication_id :integer</text>
<text text-anchor="start" x="720" y="-196.3" font-family="Times,serif" font-size="14.00">contenido :text</text>
<text text-anchor="start" x="720" y="-181.3" font-family="Times,serif" font-size="14.00">created_at :timestamp without time zone</text>
<text text-anchor="start" x="720" y="-166.3" font-family="Times,serif" font-size="14.00">updated_at :timestamp without time zone</text>
</g>
<!-- Application&#45;&gt;Message -->
<g id="edge9" class="edge"><title>Application&#45;&gt;Message</title>
<path fill="none" stroke="#4f08fa" d="M834,-149.936C834,-143.914 834,-137.812 834,-131.776"/>
<ellipse fill="none" stroke="#4f08fa" cx="834" cy="-154.132" rx="4" ry="4"/>
<polygon fill="#4f08fa" stroke="#4f08fa" points="834,-131.707 838.5,-121.707 834,-126.707 834,-121.707 834,-121.707 834,-121.707 834,-126.707 829.5,-121.707 834,-131.707 834,-131.707"/>
</g>
<!-- University -->
<g id="node10" class="node"><title>University</title>
<path fill="none" stroke="black" d="M307,-1233C307,-1233 527,-1233 527,-1233 533,-1233 539,-1239 539,-1245 539,-1245 539,-1312 539,-1312 539,-1318 533,-1324 527,-1324 527,-1324 307,-1324 307,-1324 301,-1324 295,-1318 295,-1312 295,-1312 295,-1245 295,-1245 295,-1239 301,-1233 307,-1233"/>
<text text-anchor="middle" x="417" y="-1308.8" font-family="Times,serif" font-size="14.00">University</text>
<polyline fill="none" stroke="black" points="295,-1301 539,-1301 "/>
<text text-anchor="start" x="303" y="-1285.8" font-family="Times,serif" font-size="14.00">id :integer</text>
<text text-anchor="start" x="303" y="-1270.8" font-family="Times,serif" font-size="14.00">nombre :character varying</text>
<text text-anchor="start" x="303" y="-1255.8" font-family="Times,serif" font-size="14.00">created_at :timestamp without time zone</text>
<text text-anchor="start" x="303" y="-1240.8" font-family="Times,serif" font-size="14.00">updated_at :timestamp without time zone</text>
</g>
<!-- University&#45;&gt;User -->
<g id="edge10" class="edge"><title>University&#45;&gt;User</title>
<path fill="none" stroke="#5c0264" d="M417,-1224.74C417,-1216.69 417,-1207.97 417,-1198.75"/>
<ellipse fill="none" stroke="#5c0264" cx="417" cy="-1228.87" rx="4" ry="4"/>
<polygon fill="#5c0264" stroke="#5c0264" points="417,-1198.58 421.5,-1188.58 417,-1193.58 417,-1188.58 417,-1188.58 417,-1188.58 417,-1193.58 412.5,-1188.58 417,-1198.58 417,-1198.58"/>
</g>
<!-- Interest&#45;&gt;Publication -->
<g id="edge13" class="edge"><title>Interest&#45;&gt;Publication</title>
<path fill="none" stroke="#d4f2ad" d="M516.336,-567.432C528.639,-561.168 541.099,-554.891 553,-549 601.657,-524.914 655.428,-499.16 702.795,-476.761"/>
<polygon fill="#d4f2ad" stroke="#d4f2ad" points="516.322,-567.439 505.37,-567.977 511.869,-569.712 507.416,-571.985 507.416,-571.985 507.416,-571.985 511.869,-569.712 509.461,-575.994 516.322,-567.439 516.322,-567.439"/>
<polygon fill="#d4f2ad" stroke="#d4f2ad" points="702.828,-476.745 713.792,-476.542 707.349,-474.609 711.87,-472.474 711.87,-472.474 711.87,-472.474 707.349,-474.609 709.948,-468.405 702.828,-476.745 702.828,-476.745"/>
</g>
<!-- InterestPublication -->
<g id="node15" class="node"><title>InterestPublication</title>
<path fill="none" stroke="black" d="M443,-166C443,-166 663,-166 663,-166 669,-166 675,-172 675,-178 675,-178 675,-260 675,-260 675,-266 669,-272 663,-272 663,-272 443,-272 443,-272 437,-272 431,-266 431,-260 431,-260 431,-178 431,-178 431,-172 437,-166 443,-166"/>
<text text-anchor="middle" x="553" y="-256.8" font-family="Times,serif" font-size="14.00">InterestPublication</text>
<polyline fill="none" stroke="black" points="431,-249 675,-249 "/>
<text text-anchor="start" x="439" y="-233.8" font-family="Times,serif" font-size="14.00">id :integer</text>
<text text-anchor="start" x="439" y="-218.8" font-family="Times,serif" font-size="14.00">publication_id :integer</text>
<text text-anchor="start" x="439" y="-203.8" font-family="Times,serif" font-size="14.00">interest_id :integer</text>
<text text-anchor="start" x="439" y="-188.8" font-family="Times,serif" font-size="14.00">created_at :timestamp without time zone</text>
<text text-anchor="start" x="439" y="-173.8" font-family="Times,serif" font-size="14.00">updated_at :timestamp without time zone</text>
</g>
<!-- Interest&#45;&gt;InterestPublication -->
<g id="edge12" class="edge"><title>Interest&#45;&gt;InterestPublication</title>
<path fill="none" stroke="#f5fa74" d="M453.337,-564.54C462.174,-548.415 471.216,-530.322 478,-513 508.228,-435.815 529.696,-342.403 541.713,-282.129"/>
<ellipse fill="none" stroke="#f5fa74" cx="451.244" cy="-568.304" rx="4.00002" ry="4.00002"/>
<polygon fill="#f5fa74" stroke="#f5fa74" points="541.773,-281.823 548.118,-272.88 542.738,-276.917 543.703,-272.011 543.703,-272.011 543.703,-272.011 542.738,-276.917 539.288,-271.142 541.773,-281.823 541.773,-281.823"/>
</g>
<!-- Interest&#45;&gt;UserInterest -->
<g id="edge11" class="edge"><title>Interest&#45;&gt;UserInterest</title>
<path fill="none" stroke="#aa0a9f" d="M402.457,-564.124C392.555,-537.586 380.466,-505.188 370.105,-477.421"/>
<ellipse fill="none" stroke="#aa0a9f" cx="403.957" cy="-568.144" rx="4.00001" ry="4.00001"/>
<polygon fill="#aa0a9f" stroke="#aa0a9f" points="370.015,-477.179 370.735,-466.237 368.267,-472.495 366.519,-467.81 366.519,-467.81 366.519,-467.81 368.267,-472.495 362.303,-469.383 370.015,-477.179 370.015,-477.179"/>
</g>
<!-- Publication&#45;&gt;Application -->
<g id="edge15" class="edge"><title>Publication&#45;&gt;Application</title>
<path fill="none" stroke="#3cf564" d="M834,-308.246C834,-301.991 834,-295.783 834,-289.729"/>
<ellipse fill="none" stroke="#3cf564" cx="834" cy="-312.467" rx="4" ry="4"/>
<polygon fill="#3cf564" stroke="#3cf564" points="834,-289.704 838.5,-279.704 834,-284.704 834,-279.704 834,-279.704 834,-279.704 834,-284.704 829.5,-279.704 834,-289.704 834,-289.704"/>
</g>
<!-- Publication&#45;&gt;InterestPublication -->
<g id="edge14" class="edge"><title>Publication&#45;&gt;InterestPublication</title>
<path fill="none" stroke="#a8c283" d="M705.328,-324.895C682.199,-308.968 658.639,-292.745 637.18,-277.967"/>
<ellipse fill="none" stroke="#a8c283" cx="708.681" cy="-327.204" rx="4.00002" ry="4.00002"/>
<polygon fill="#a8c283" stroke="#a8c283" points="636.987,-277.835 631.303,-268.457 632.869,-274.999 628.751,-272.163 628.751,-272.163 628.751,-272.163 632.869,-274.999 626.199,-275.869 636.987,-277.835 636.987,-277.835"/>
</g>
<!-- Region -->
<g id="node14" class="node"><title>Region</title>
<path fill="none" stroke="black" d="M628,-1368.5C628,-1368.5 848,-1368.5 848,-1368.5 854,-1368.5 860,-1374.5 860,-1380.5 860,-1380.5 860,-1447.5 860,-1447.5 860,-1453.5 854,-1459.5 848,-1459.5 848,-1459.5 628,-1459.5 628,-1459.5 622,-1459.5 616,-1453.5 616,-1447.5 616,-1447.5 616,-1380.5 616,-1380.5 616,-1374.5 622,-1368.5 628,-1368.5"/>
<text text-anchor="middle" x="738" y="-1444.3" font-family="Times,serif" font-size="14.00">Region</text>
<polyline fill="none" stroke="black" points="616,-1436.5 860,-1436.5 "/>
<text text-anchor="start" x="624" y="-1421.3" font-family="Times,serif" font-size="14.00">id :integer</text>
<text text-anchor="start" x="624" y="-1406.3" font-family="Times,serif" font-size="14.00">nombre :character varying</text>
<text text-anchor="start" x="624" y="-1391.3" font-family="Times,serif" font-size="14.00">created_at :timestamp without time zone</text>
<text text-anchor="start" x="624" y="-1376.3" font-family="Times,serif" font-size="14.00">updated_at :timestamp without time zone</text>
</g>
<!-- City -->
<g id="node18" class="node"><title>City</title>
<path fill="none" stroke="black" d="M628,-1225.5C628,-1225.5 848,-1225.5 848,-1225.5 854,-1225.5 860,-1231.5 860,-1237.5 860,-1237.5 860,-1319.5 860,-1319.5 860,-1325.5 854,-1331.5 848,-1331.5 848,-1331.5 628,-1331.5 628,-1331.5 622,-1331.5 616,-1325.5 616,-1319.5 616,-1319.5 616,-1237.5 616,-1237.5 616,-1231.5 622,-1225.5 628,-1225.5"/>
<text text-anchor="middle" x="738" y="-1316.3" font-family="Times,serif" font-size="14.00">City</text>
<polyline fill="none" stroke="black" points="616,-1308.5 860,-1308.5 "/>
<text text-anchor="start" x="624" y="-1293.3" font-family="Times,serif" font-size="14.00">id :integer</text>
<text text-anchor="start" x="624" y="-1278.3" font-family="Times,serif" font-size="14.00">nombre :character varying</text>
<text text-anchor="start" x="624" y="-1263.3" font-family="Times,serif" font-size="14.00">region_id :integer</text>
<text text-anchor="start" x="624" y="-1248.3" font-family="Times,serif" font-size="14.00">created_at :timestamp without time zone</text>
<text text-anchor="start" x="624" y="-1233.3" font-family="Times,serif" font-size="14.00">updated_at :timestamp without time zone</text>
</g>
<!-- Region&#45;&gt;City -->
<g id="edge16" class="edge"><title>Region&#45;&gt;City</title>
<path fill="none" stroke="#c97b74" d="M738,-1360.11C738,-1354.15 738,-1348.03 738,-1341.96"/>
<ellipse fill="none" stroke="#c97b74" cx="738" cy="-1364.18" rx="4" ry="4"/>
<polygon fill="#c97b74" stroke="#c97b74" points="738,-1341.82 742.5,-1331.82 738,-1336.82 738,-1331.82 738,-1331.82 738,-1331.82 738,-1336.82 733.5,-1331.82 738,-1341.82 738,-1341.82"/>
</g>
<!-- Area -->
<g id="node17" class="node"><title>Area</title>
<path fill="none" stroke="black" d="M874,-572C874,-572 1094,-572 1094,-572 1100,-572 1106,-578 1106,-584 1106,-584 1106,-651 1106,-651 1106,-657 1100,-663 1094,-663 1094,-663 874,-663 874,-663 868,-663 862,-657 862,-651 862,-651 862,-584 862,-584 862,-578 868,-572 874,-572"/>
<text text-anchor="middle" x="984" y="-647.8" font-family="Times,serif" font-size="14.00">Area</text>
<polyline fill="none" stroke="black" points="862,-640 1106,-640 "/>
<text text-anchor="start" x="870" y="-624.8" font-family="Times,serif" font-size="14.00">id :integer</text>
<text text-anchor="start" x="870" y="-609.8" font-family="Times,serif" font-size="14.00">nombre :character varying</text>
<text text-anchor="start" x="870" y="-594.8" font-family="Times,serif" font-size="14.00">created_at :timestamp without time zone</text>
<text text-anchor="start" x="870" y="-579.8" font-family="Times,serif" font-size="14.00">updated_at :timestamp without time zone</text>
</g>
<!-- Area&#45;&gt;Publication -->
<g id="edge17" class="edge"><title>Area&#45;&gt;Publication</title>
<path fill="none" stroke="#51b6ae" d="M945.679,-565.149C935.469,-551.468 924.056,-536.175 912.532,-520.733"/>
<ellipse fill="none" stroke="#51b6ae" cx="948.318" cy="-568.686" rx="4.00002" ry="4.00002"/>
<polygon fill="#51b6ae" stroke="#51b6ae" points="912.482,-520.666 910.107,-509.96 909.491,-516.659 906.501,-512.651 906.501,-512.651 906.501,-512.651 909.491,-516.659 902.895,-515.343 912.482,-520.666 912.482,-520.666"/>
</g>
<!-- City&#45;&gt;Company -->
<g id="edge19" class="edge"><title>City&#45;&gt;Company</title>
<path fill="none" stroke="#c05d73" d="M749.276,-1217.17C751.21,-1206.83 753.315,-1195.56 755.532,-1183.71"/>
<ellipse fill="none" stroke="#c05d73" cx="748.509" cy="-1221.28" rx="4.00001" ry="4.00001"/>
<polygon fill="#c05d73" stroke="#c05d73" points="755.581,-1183.44 761.841,-1174.44 756.499,-1178.53 757.418,-1173.61 757.418,-1173.61 757.418,-1173.61 756.499,-1178.53 752.995,-1172.79 755.581,-1183.44 755.581,-1183.44"/>
</g>
<!-- City&#45;&gt;User -->
<g id="edge18" class="edge"><title>City&#45;&gt;User</title>
<path fill="none" stroke="#27af7e" d="M666.773,-1220.19C654.931,-1210.06 642.949,-1199.41 632,-1189 615.09,-1172.93 597.878,-1155.79 580.929,-1138.39"/>
<ellipse fill="none" stroke="#27af7e" cx="669.9" cy="-1222.85" rx="4.00002" ry="4.00002"/>
<polygon fill="#27af7e" stroke="#27af7e" points="580.645,-1138.1 576.913,-1127.79 577.164,-1134.51 573.683,-1130.92 573.683,-1130.92 573.683,-1130.92 577.164,-1134.51 570.453,-1134.05 580.645,-1138.1 580.645,-1138.1"/>
</g>
</g>
</svg>
