<?xml version="1.0" encoding="UTF-8" standalone="no"?>
<!DOCTYPE svg PUBLIC "-//W3C//DTD SVG 1.1//EN"
 "http://www.w3.org/Graphics/SVG/1.1/DTD/svg11.dtd">
<!-- Generated by graphviz version 2.40.1 (20161225.0304)
 -->
<!-- Title: models_diagram Pages: 1 -->
<svg width="1694pt" height="1466pt"
 viewBox="0.00 0.00 1694.50 1466.00" xmlns="http://www.w3.org/2000/svg" xmlns:xlink="http://www.w3.org/1999/xlink">
<g id="graph0" class="graph" transform="scale(1 1) rotate(0) translate(4 1462)">
<title>models_diagram</title>
<polygon fill="transparent" stroke="transparent" points="-4,4 -4,-1462 1690.4971,-1462 1690.4971,4 -4,4"/>
<!-- _diagram_info -->
<g id="node1" class="node">
<title>_diagram_info</title>
<text text-anchor="start" x="309.947" y="-1436.6" font-family="Times,serif" font-size="13.00" fill="#000000">Models diagram</text>
<text text-anchor="start" x="309.947" y="-1423.6" font-family="Times,serif" font-size="13.00" fill="#000000">Date: Sep 20 2017 &#45; 16:55</text>
<text text-anchor="start" x="309.947" y="-1410.6" font-family="Times,serif" font-size="13.00" fill="#000000">Migration version: 20170920184856</text>
<text text-anchor="start" x="309.947" y="-1397.6" font-family="Times,serif" font-size="13.00" fill="#000000">Generated by RailRoady 1.5.3</text>
<text text-anchor="start" x="309.947" y="-1384.6" font-family="Times,serif" font-size="13.00" fill="#000000">http://railroady.prestonlee.com</text>
</g>
<!-- Application -->
<g id="node2" class="node">
<title>Application</title>
<path fill="none" stroke="#000000" d="M386.7725,-158.5C386.7725,-158.5 610.4971,-158.5 610.4971,-158.5 616.4971,-158.5 622.4971,-164.5 622.4971,-170.5 622.4971,-170.5 622.4971,-260.5 622.4971,-260.5 622.4971,-266.5 616.4971,-272.5 610.4971,-272.5 610.4971,-272.5 386.7725,-272.5 386.7725,-272.5 380.7725,-272.5 374.7725,-266.5 374.7725,-260.5 374.7725,-260.5 374.7725,-170.5 374.7725,-170.5 374.7725,-164.5 380.7725,-158.5 386.7725,-158.5"/>
<text text-anchor="middle" x="498.6348" y="-257.3" font-family="Times,serif" font-size="14.00" fill="#000000">Application</text>
<polyline fill="none" stroke="#000000" points="374.7725,-250.5 622.4971,-250.5 "/>
<text text-anchor="start" x="382.7725" y="-235.3" font-family="Times,serif" font-size="14.00" fill="#000000">id :integer</text>
<text text-anchor="start" x="382.7725" y="-221.3" font-family="Times,serif" font-size="14.00" fill="#000000">user_id :integer</text>
<text text-anchor="start" x="382.7725" y="-207.3" font-family="Times,serif" font-size="14.00" fill="#000000">publication_id :integer</text>
<text text-anchor="start" x="382.7725" y="-193.3" font-family="Times,serif" font-size="14.00" fill="#000000">contenido :text</text>
<text text-anchor="start" x="382.7725" y="-179.3" font-family="Times,serif" font-size="14.00" fill="#000000">created_at :timestamp without time zone</text>
<text text-anchor="start" x="382.7725" y="-165.3" font-family="Times,serif" font-size="14.00" fill="#000000">updated_at :timestamp without time zone</text>
</g>
<!-- Message -->
<g id="node11" class="node">
<title>Message</title>
<path fill="none" stroke="#000000" d="M386.7725,-.5C386.7725,-.5 610.4971,-.5 610.4971,-.5 616.4971,-.5 622.4971,-6.5 622.4971,-12.5 622.4971,-12.5 622.4971,-102.5 622.4971,-102.5 622.4971,-108.5 616.4971,-114.5 610.4971,-114.5 610.4971,-114.5 386.7725,-114.5 386.7725,-114.5 380.7725,-114.5 374.7725,-108.5 374.7725,-102.5 374.7725,-102.5 374.7725,-12.5 374.7725,-12.5 374.7725,-6.5 380.7725,-.5 386.7725,-.5"/>
<text text-anchor="middle" x="498.6348" y="-99.3" font-family="Times,serif" font-size="14.00" fill="#000000">Message</text>
<polyline fill="none" stroke="#000000" points="374.7725,-92.5 622.4971,-92.5 "/>
<text text-anchor="start" x="382.7725" y="-77.3" font-family="Times,serif" font-size="14.00" fill="#000000">id :integer</text>
<text text-anchor="start" x="382.7725" y="-63.3" font-family="Times,serif" font-size="14.00" fill="#000000">application_id :integer</text>
<text text-anchor="start" x="382.7725" y="-49.3" font-family="Times,serif" font-size="14.00" fill="#000000">nombre :character varying</text>
<text text-anchor="start" x="382.7725" y="-35.3" font-family="Times,serif" font-size="14.00" fill="#000000">mensaje :text</text>
<text text-anchor="start" x="382.7725" y="-21.3" font-family="Times,serif" font-size="14.00" fill="#000000">created_at :timestamp without time zone</text>
<text text-anchor="start" x="382.7725" y="-7.3" font-family="Times,serif" font-size="14.00" fill="#000000">updated_at :timestamp without time zone</text>
</g>
<!-- Application&#45;&gt;Message -->
<g id="edge1" class="edge">
<title>Application&#45;&gt;Message</title>
<path fill="none" stroke="#74443d" d="M498.6348,-150.3579C498.6348,-141.9555 498.6348,-133.3371 498.6348,-124.8993"/>
<ellipse fill="none" stroke="#74443d" cx="498.6348" cy="-154.4584" rx="4" ry="4"/>
<polygon fill="#74443d" stroke="#74443d" points="498.6349,-124.7231 503.1348,-114.7231 498.6348,-119.7231 498.6348,-114.7231 498.6348,-114.7231 498.6348,-114.7231 498.6348,-119.7231 494.1348,-114.7232 498.6349,-124.7231 498.6349,-124.7231"/>
</g>
<!-- ApplicationRecord -->
<g id="node3" class="node">
<title>ApplicationRecord</title>
<ellipse fill="none" stroke="#000000" cx="870.6348" cy="-1414.5" rx="77.2916" ry="18"/>
<text text-anchor="middle" x="870.6348" y="-1410.3" font-family="Times,serif" font-size="14.00" fill="#000000">ApplicationRecord</text>
</g>
<!-- Area -->
<g id="node4" class="node">
<title>Area</title>
<path fill="none" stroke="#000000" d="M348.7725,-950.5C348.7725,-950.5 572.4971,-950.5 572.4971,-950.5 578.4971,-950.5 584.4971,-956.5 584.4971,-962.5 584.4971,-962.5 584.4971,-1024.5 584.4971,-1024.5 584.4971,-1030.5 578.4971,-1036.5 572.4971,-1036.5 572.4971,-1036.5 348.7725,-1036.5 348.7725,-1036.5 342.7725,-1036.5 336.7725,-1030.5 336.7725,-1024.5 336.7725,-1024.5 336.7725,-962.5 336.7725,-962.5 336.7725,-956.5 342.7725,-950.5 348.7725,-950.5"/>
<text text-anchor="middle" x="460.6348" y="-1021.3" font-family="Times,serif" font-size="14.00" fill="#000000">Area</text>
<polyline fill="none" stroke="#000000" points="336.7725,-1014.5 584.4971,-1014.5 "/>
<text text-anchor="start" x="344.7725" y="-999.3" font-family="Times,serif" font-size="14.00" fill="#000000">id :integer</text>
<text text-anchor="start" x="344.7725" y="-985.3" font-family="Times,serif" font-size="14.00" fill="#000000">nombre :character varying</text>
<text text-anchor="start" x="344.7725" y="-971.3" font-family="Times,serif" font-size="14.00" fill="#000000">created_at :timestamp without time zone</text>
<text text-anchor="start" x="344.7725" y="-957.3" font-family="Times,serif" font-size="14.00" fill="#000000">updated_at :timestamp without time zone</text>
</g>
<!-- Publication -->
<g id="node12" class="node">
<title>Publication</title>
<path fill="none" stroke="#000000" d="M443.7725,-442.5C443.7725,-442.5 667.4971,-442.5 667.4971,-442.5 673.4971,-442.5 679.4971,-448.5 679.4971,-454.5 679.4971,-454.5 679.4971,-614.5 679.4971,-614.5 679.4971,-620.5 673.4971,-626.5 667.4971,-626.5 667.4971,-626.5 443.7725,-626.5 443.7725,-626.5 437.7725,-626.5 431.7725,-620.5 431.7725,-614.5 431.7725,-614.5 431.7725,-454.5 431.7725,-454.5 431.7725,-448.5 437.7725,-442.5 443.7725,-442.5"/>
<text text-anchor="middle" x="555.6348" y="-611.3" font-family="Times,serif" font-size="14.00" fill="#000000">Publication</text>
<polyline fill="none" stroke="#000000" points="431.7725,-604.5 679.4971,-604.5 "/>
<text text-anchor="start" x="439.7725" y="-589.3" font-family="Times,serif" font-size="14.00" fill="#000000">updated_at :timestamp without time zone</text>
<text text-anchor="start" x="439.7725" y="-575.3" font-family="Times,serif" font-size="14.00" fill="#000000">titulo :character varying</text>
<text text-anchor="start" x="439.7725" y="-561.3" font-family="Times,serif" font-size="14.00" fill="#000000">problema :text</text>
<text text-anchor="start" x="439.7725" y="-547.3" font-family="Times,serif" font-size="14.00" fill="#000000">limite :timestamp without time zone</text>
<text text-anchor="start" x="439.7725" y="-533.3" font-family="Times,serif" font-size="14.00" fill="#000000">description :text</text>
<text text-anchor="start" x="439.7725" y="-519.3" font-family="Times,serif" font-size="14.00" fill="#000000">premios :text</text>
<text text-anchor="start" x="439.7725" y="-505.3" font-family="Times,serif" font-size="14.00" fill="#000000">company_id :integer</text>
<text text-anchor="start" x="439.7725" y="-491.3" font-family="Times,serif" font-size="14.00" fill="#000000">area_id :integer</text>
<text text-anchor="start" x="439.7725" y="-477.3" font-family="Times,serif" font-size="14.00" fill="#000000">type_id :integer</text>
<text text-anchor="start" x="439.7725" y="-463.3" font-family="Times,serif" font-size="14.00" fill="#000000">created_at :timestamp without time zone</text>
<text text-anchor="start" x="439.7725" y="-449.3" font-family="Times,serif" font-size="14.00" fill="#000000">id :integer</text>
</g>
<!-- Area&#45;&gt;Publication -->
<g id="edge2" class="edge">
<title>Area&#45;&gt;Publication</title>
<path fill="none" stroke="#6172d2" d="M471.2383,-942.2683C486.4662,-868.6936 514.851,-731.55 534.4708,-636.7552"/>
<ellipse fill="none" stroke="#6172d2" cx="470.3829" cy="-946.4014" rx="4" ry="4"/>
<polygon fill="#6172d2" stroke="#6172d2" points="534.4931,-636.6474 540.9265,-627.767 535.5065,-631.7511 536.5199,-626.8549 536.5199,-626.8549 536.5199,-626.8549 535.5065,-631.7511 532.1133,-625.9428 534.4931,-636.6474 534.4931,-636.6474"/>
</g>
<!-- Career -->
<g id="node5" class="node">
<title>Career</title>
<path fill="none" stroke="#000000" d="M1450.7725,-950.5C1450.7725,-950.5 1674.4971,-950.5 1674.4971,-950.5 1680.4971,-950.5 1686.4971,-956.5 1686.4971,-962.5 1686.4971,-962.5 1686.4971,-1024.5 1686.4971,-1024.5 1686.4971,-1030.5 1680.4971,-1036.5 1674.4971,-1036.5 1674.4971,-1036.5 1450.7725,-1036.5 1450.7725,-1036.5 1444.7725,-1036.5 1438.7725,-1030.5 1438.7725,-1024.5 1438.7725,-1024.5 1438.7725,-962.5 1438.7725,-962.5 1438.7725,-956.5 1444.7725,-950.5 1450.7725,-950.5"/>
<text text-anchor="middle" x="1562.6348" y="-1021.3" font-family="Times,serif" font-size="14.00" fill="#000000">Career</text>
<polyline fill="none" stroke="#000000" points="1438.7725,-1014.5 1686.4971,-1014.5 "/>
<text text-anchor="start" x="1446.7725" y="-999.3" font-family="Times,serif" font-size="14.00" fill="#000000">id :integer</text>
<text text-anchor="start" x="1446.7725" y="-985.3" font-family="Times,serif" font-size="14.00" fill="#000000">nombre :character varying</text>
<text text-anchor="start" x="1446.7725" y="-971.3" font-family="Times,serif" font-size="14.00" fill="#000000">created_at :timestamp without time zone</text>
<text text-anchor="start" x="1446.7725" y="-957.3" font-family="Times,serif" font-size="14.00" fill="#000000">updated_at :timestamp without time zone</text>
</g>
<!-- User -->
<g id="node16" class="node">
<title>User</title>
<path fill="none" stroke="#000000" d="M1149,-316.5C1149,-316.5 1444.2695,-316.5 1444.2695,-316.5 1450.2695,-316.5 1456.2695,-322.5 1456.2695,-328.5 1456.2695,-328.5 1456.2695,-740.5 1456.2695,-740.5 1456.2695,-746.5 1450.2695,-752.5 1444.2695,-752.5 1444.2695,-752.5 1149,-752.5 1149,-752.5 1143,-752.5 1137,-746.5 1137,-740.5 1137,-740.5 1137,-328.5 1137,-328.5 1137,-322.5 1143,-316.5 1149,-316.5"/>
<text text-anchor="middle" x="1296.6348" y="-737.3" font-family="Times,serif" font-size="14.00" fill="#000000">User</text>
<polyline fill="none" stroke="#000000" points="1137,-730.5 1456.2695,-730.5 "/>
<text text-anchor="start" x="1145" y="-715.3" font-family="Times,serif" font-size="14.00" fill="#000000">disc_profile_id :integer</text>
<text text-anchor="start" x="1145" y="-701.3" font-family="Times,serif" font-size="14.00" fill="#000000">email :character varying</text>
<text text-anchor="start" x="1145" y="-687.3" font-family="Times,serif" font-size="14.00" fill="#000000">encrypted_password :character varying</text>
<text text-anchor="start" x="1145" y="-673.3" font-family="Times,serif" font-size="14.00" fill="#000000">rut :character varying</text>
<text text-anchor="start" x="1145" y="-659.3" font-family="Times,serif" font-size="14.00" fill="#000000">nombre :character varying</text>
<text text-anchor="start" x="1145" y="-645.3" font-family="Times,serif" font-size="14.00" fill="#000000">paterno :character varying</text>
<text text-anchor="start" x="1145" y="-631.3" font-family="Times,serif" font-size="14.00" fill="#000000">materno :character varying</text>
<text text-anchor="start" x="1145" y="-617.3" font-family="Times,serif" font-size="14.00" fill="#000000">fechanac :date</text>
<text text-anchor="start" x="1145" y="-603.3" font-family="Times,serif" font-size="14.00" fill="#000000">genero :character varying</text>
<text text-anchor="start" x="1145" y="-589.3" font-family="Times,serif" font-size="14.00" fill="#000000">reset_password_token :character varying</text>
<text text-anchor="start" x="1145" y="-575.3" font-family="Times,serif" font-size="14.00" fill="#000000">reset_password_sent_at :timestamp without time zone</text>
<text text-anchor="start" x="1145" y="-561.3" font-family="Times,serif" font-size="14.00" fill="#000000">remember_created_at :timestamp without time zone</text>
<text text-anchor="start" x="1145" y="-547.3" font-family="Times,serif" font-size="14.00" fill="#000000">sign_in_count :integer</text>
<text text-anchor="start" x="1145" y="-533.3" font-family="Times,serif" font-size="14.00" fill="#000000">current_sign_in_at :timestamp without time zone</text>
<text text-anchor="start" x="1145" y="-519.3" font-family="Times,serif" font-size="14.00" fill="#000000">last_sign_in_at :timestamp without time zone</text>
<text text-anchor="start" x="1145" y="-505.3" font-family="Times,serif" font-size="14.00" fill="#000000">current_sign_in_ip :inet</text>
<text text-anchor="start" x="1145" y="-491.3" font-family="Times,serif" font-size="14.00" fill="#000000">last_sign_in_ip :inet</text>
<text text-anchor="start" x="1145" y="-477.3" font-family="Times,serif" font-size="14.00" fill="#000000">confirmation_token :character varying</text>
<text text-anchor="start" x="1145" y="-463.3" font-family="Times,serif" font-size="14.00" fill="#000000">confirmed_at :timestamp without time zone</text>
<text text-anchor="start" x="1145" y="-449.3" font-family="Times,serif" font-size="14.00" fill="#000000">confirmation_sent_at :timestamp without time zone</text>
<text text-anchor="start" x="1145" y="-435.3" font-family="Times,serif" font-size="14.00" fill="#000000">unconfirmed_email :character varying</text>
<text text-anchor="start" x="1145" y="-421.3" font-family="Times,serif" font-size="14.00" fill="#000000">failed_attempts :integer</text>
<text text-anchor="start" x="1145" y="-407.3" font-family="Times,serif" font-size="14.00" fill="#000000">unlock_token :character varying</text>
<text text-anchor="start" x="1145" y="-393.3" font-family="Times,serif" font-size="14.00" fill="#000000">locked_at :timestamp without time zone</text>
<text text-anchor="start" x="1145" y="-379.3" font-family="Times,serif" font-size="14.00" fill="#000000">created_at :timestamp without time zone</text>
<text text-anchor="start" x="1145" y="-365.3" font-family="Times,serif" font-size="14.00" fill="#000000">updated_at :timestamp without time zone</text>
<text text-anchor="start" x="1145" y="-351.3" font-family="Times,serif" font-size="14.00" fill="#000000">city_id :integer</text>
<text text-anchor="start" x="1145" y="-337.3" font-family="Times,serif" font-size="14.00" fill="#000000">university_id :integer</text>
<text text-anchor="start" x="1145" y="-323.3" font-family="Times,serif" font-size="14.00" fill="#000000">id :integer</text>
</g>
<!-- Career&#45;&gt;User -->
<g id="edge4" class="edge">
<title>Career&#45;&gt;User</title>
<path fill="none" stroke="#0eda8c" d="M1532.5691,-941.6197C1506.6436,-896.8837 1467.3009,-828.9953 1428.1319,-761.4068"/>
<polygon fill="#0eda8c" stroke="#0eda8c" points="1532.596,-941.6663 1533.7167,-952.5748 1535.1031,-945.9923 1537.6101,-950.3184 1537.6101,-950.3184 1537.6101,-950.3184 1535.1031,-945.9923 1541.5036,-948.062 1532.596,-941.6663 1532.596,-941.6663"/>
<polygon fill="#0eda8c" stroke="#0eda8c" points="1428.1223,-761.3901 1427.0017,-750.4816 1425.6153,-757.0641 1423.1082,-752.738 1423.1082,-752.738 1423.1082,-752.738 1425.6153,-757.0641 1419.2147,-754.9944 1428.1223,-761.3901 1428.1223,-761.3901"/>
</g>
<!-- UserCareer -->
<g id="node17" class="node">
<title>UserCareer</title>
<path fill="none" stroke="#000000" d="M1450.7725,-165.5C1450.7725,-165.5 1674.4971,-165.5 1674.4971,-165.5 1680.4971,-165.5 1686.4971,-171.5 1686.4971,-177.5 1686.4971,-177.5 1686.4971,-253.5 1686.4971,-253.5 1686.4971,-259.5 1680.4971,-265.5 1674.4971,-265.5 1674.4971,-265.5 1450.7725,-265.5 1450.7725,-265.5 1444.7725,-265.5 1438.7725,-259.5 1438.7725,-253.5 1438.7725,-253.5 1438.7725,-177.5 1438.7725,-177.5 1438.7725,-171.5 1444.7725,-165.5 1450.7725,-165.5"/>
<text text-anchor="middle" x="1562.6348" y="-250.3" font-family="Times,serif" font-size="14.00" fill="#000000">UserCareer</text>
<polyline fill="none" stroke="#000000" points="1438.7725,-243.5 1686.4971,-243.5 "/>
<text text-anchor="start" x="1446.7725" y="-228.3" font-family="Times,serif" font-size="14.00" fill="#000000">id :integer</text>
<text text-anchor="start" x="1446.7725" y="-214.3" font-family="Times,serif" font-size="14.00" fill="#000000">user_id :integer</text>
<text text-anchor="start" x="1446.7725" y="-200.3" font-family="Times,serif" font-size="14.00" fill="#000000">career_id :integer</text>
<text text-anchor="start" x="1446.7725" y="-186.3" font-family="Times,serif" font-size="14.00" fill="#000000">created_at :timestamp without time zone</text>
<text text-anchor="start" x="1446.7725" y="-172.3" font-family="Times,serif" font-size="14.00" fill="#000000">updated_at :timestamp without time zone</text>
</g>
<!-- Career&#45;&gt;UserCareer -->
<g id="edge3" class="edge">
<title>Career&#45;&gt;UserCareer</title>
<path fill="none" stroke="#5a28cf" d="M1562.6348,-942.1269C1562.6348,-803.8393 1562.6348,-424.1898 1562.6348,-275.9361"/>
<ellipse fill="none" stroke="#5a28cf" cx="1562.6348" cy="-946.2841" rx="4" ry="4"/>
<polygon fill="#5a28cf" stroke="#5a28cf" points="1562.6349,-275.6682 1567.1348,-265.6682 1562.6348,-270.6682 1562.6348,-265.6682 1562.6348,-265.6682 1562.6348,-265.6682 1562.6348,-270.6682 1558.1348,-265.6683 1562.6349,-275.6682 1562.6349,-275.6682"/>
</g>
<!-- City -->
<g id="node6" class="node">
<title>City</title>
<path fill="none" stroke="#000000" d="M539.7725,-1234.5C539.7725,-1234.5 763.4971,-1234.5 763.4971,-1234.5 769.4971,-1234.5 775.4971,-1240.5 775.4971,-1246.5 775.4971,-1246.5 775.4971,-1322.5 775.4971,-1322.5 775.4971,-1328.5 769.4971,-1334.5 763.4971,-1334.5 763.4971,-1334.5 539.7725,-1334.5 539.7725,-1334.5 533.7725,-1334.5 527.7725,-1328.5 527.7725,-1322.5 527.7725,-1322.5 527.7725,-1246.5 527.7725,-1246.5 527.7725,-1240.5 533.7725,-1234.5 539.7725,-1234.5"/>
<text text-anchor="middle" x="651.6348" y="-1319.3" font-family="Times,serif" font-size="14.00" fill="#000000">City</text>
<polyline fill="none" stroke="#000000" points="527.7725,-1312.5 775.4971,-1312.5 "/>
<text text-anchor="start" x="535.7725" y="-1297.3" font-family="Times,serif" font-size="14.00" fill="#000000">id :integer</text>
<text text-anchor="start" x="535.7725" y="-1283.3" font-family="Times,serif" font-size="14.00" fill="#000000">nombre :character varying</text>
<text text-anchor="start" x="535.7725" y="-1269.3" font-family="Times,serif" font-size="14.00" fill="#000000">region_id :integer</text>
<text text-anchor="start" x="535.7725" y="-1255.3" font-family="Times,serif" font-size="14.00" fill="#000000">created_at :timestamp without time zone</text>
<text text-anchor="start" x="535.7725" y="-1241.3" font-family="Times,serif" font-size="14.00" fill="#000000">updated_at :timestamp without time zone</text>
</g>
<!-- Company -->
<g id="node7" class="node">
<title>Company</title>
<path fill="none" stroke="#000000" d="M12,-789.5C12,-789.5 307.2695,-789.5 307.2695,-789.5 313.2695,-789.5 319.2695,-795.5 319.2695,-801.5 319.2695,-801.5 319.2695,-1185.5 319.2695,-1185.5 319.2695,-1191.5 313.2695,-1197.5 307.2695,-1197.5 307.2695,-1197.5 12,-1197.5 12,-1197.5 6,-1197.5 0,-1191.5 0,-1185.5 0,-1185.5 0,-801.5 0,-801.5 0,-795.5 6,-789.5 12,-789.5"/>
<text text-anchor="middle" x="159.6348" y="-1182.3" font-family="Times,serif" font-size="14.00" fill="#000000">Company</text>
<polyline fill="none" stroke="#000000" points="0,-1175.5 319.2695,-1175.5 "/>
<text text-anchor="start" x="8" y="-1160.3" font-family="Times,serif" font-size="14.00" fill="#000000">city_id :integer</text>
<text text-anchor="start" x="8" y="-1146.3" font-family="Times,serif" font-size="14.00" fill="#000000">email :character varying</text>
<text text-anchor="start" x="8" y="-1132.3" font-family="Times,serif" font-size="14.00" fill="#000000">encrypted_password :character varying</text>
<text text-anchor="start" x="8" y="-1118.3" font-family="Times,serif" font-size="14.00" fill="#000000">rut :character varying</text>
<text text-anchor="start" x="8" y="-1104.3" font-family="Times,serif" font-size="14.00" fill="#000000">razon :character varying</text>
<text text-anchor="start" x="8" y="-1090.3" font-family="Times,serif" font-size="14.00" fill="#000000">direccion :character varying</text>
<text text-anchor="start" x="8" y="-1076.3" font-family="Times,serif" font-size="14.00" fill="#000000">rubro :character varying</text>
<text text-anchor="start" x="8" y="-1062.3" font-family="Times,serif" font-size="14.00" fill="#000000">telefono :integer</text>
<text text-anchor="start" x="8" y="-1048.3" font-family="Times,serif" font-size="14.00" fill="#000000">resumen :text</text>
<text text-anchor="start" x="8" y="-1034.3" font-family="Times,serif" font-size="14.00" fill="#000000">reset_password_token :character varying</text>
<text text-anchor="start" x="8" y="-1020.3" font-family="Times,serif" font-size="14.00" fill="#000000">reset_password_sent_at :timestamp without time zone</text>
<text text-anchor="start" x="8" y="-1006.3" font-family="Times,serif" font-size="14.00" fill="#000000">remember_created_at :timestamp without time zone</text>
<text text-anchor="start" x="8" y="-992.3" font-family="Times,serif" font-size="14.00" fill="#000000">sign_in_count :integer</text>
<text text-anchor="start" x="8" y="-978.3" font-family="Times,serif" font-size="14.00" fill="#000000">current_sign_in_at :timestamp without time zone</text>
<text text-anchor="start" x="8" y="-964.3" font-family="Times,serif" font-size="14.00" fill="#000000">last_sign_in_at :timestamp without time zone</text>
<text text-anchor="start" x="8" y="-950.3" font-family="Times,serif" font-size="14.00" fill="#000000">current_sign_in_ip :inet</text>
<text text-anchor="start" x="8" y="-936.3" font-family="Times,serif" font-size="14.00" fill="#000000">last_sign_in_ip :inet</text>
<text text-anchor="start" x="8" y="-922.3" font-family="Times,serif" font-size="14.00" fill="#000000">confirmation_token :character varying</text>
<text text-anchor="start" x="8" y="-908.3" font-family="Times,serif" font-size="14.00" fill="#000000">confirmed_at :timestamp without time zone</text>
<text text-anchor="start" x="8" y="-894.3" font-family="Times,serif" font-size="14.00" fill="#000000">confirmation_sent_at :timestamp without time zone</text>
<text text-anchor="start" x="8" y="-880.3" font-family="Times,serif" font-size="14.00" fill="#000000">unconfirmed_email :character varying</text>
<text text-anchor="start" x="8" y="-866.3" font-family="Times,serif" font-size="14.00" fill="#000000">failed_attempts :integer</text>
<text text-anchor="start" x="8" y="-852.3" font-family="Times,serif" font-size="14.00" fill="#000000">unlock_token :character varying</text>
<text text-anchor="start" x="8" y="-838.3" font-family="Times,serif" font-size="14.00" fill="#000000">locked_at :timestamp without time zone</text>
<text text-anchor="start" x="8" y="-824.3" font-family="Times,serif" font-size="14.00" fill="#000000">created_at :timestamp without time zone</text>
<text text-anchor="start" x="8" y="-810.3" font-family="Times,serif" font-size="14.00" fill="#000000">updated_at :timestamp without time zone</text>
<text text-anchor="start" x="8" y="-796.3" font-family="Times,serif" font-size="14.00" fill="#000000">id :integer</text>
</g>
<!-- City&#45;&gt;Company -->
<g id="edge6" class="edge">
<title>City&#45;&gt;Company</title>
<path fill="none" stroke="#ca63e1" d="M519.8347,-1268.3734C457.8012,-1256.1941 385.0255,-1234.9463 327.6348,-1198 327.5472,-1197.9437 327.4597,-1197.8872 327.3722,-1197.8308"/>
<ellipse fill="none" stroke="#ca63e1" cx="523.8047" cy="-1269.1341" rx="4" ry="4"/>
<polygon fill="#ca63e1" stroke="#ca63e1" points="327.6047,-1197.987 321.8142,-1188.6746 323.4546,-1195.1984 319.3044,-1192.4098 319.3044,-1192.4098 319.3044,-1192.4098 323.4546,-1195.1984 316.7947,-1196.1449 327.6047,-1197.987 327.6047,-1197.987"/>
</g>
<!-- City&#45;&gt;User -->
<g id="edge5" class="edge">
<title>City&#45;&gt;User</title>
<path fill="none" stroke="#cdf2f5" d="M783.713,-1277.8649C907.6709,-1268.6685 1080.5803,-1247.1976 1125.6348,-1198 1187.2829,-1130.6828 1137.7866,-876.5441 1163.6348,-789 1166.2804,-780.0397 1169.2514,-771.0275 1172.4859,-762.0189"/>
<ellipse fill="none" stroke="#cdf2f5" cx="779.6103" cy="-1278.1631" rx="4" ry="4"/>
<polygon fill="#cdf2f5" stroke="#cdf2f5" points="1172.4869,-762.016 1180.1711,-754.1928 1174.2182,-757.3253 1175.9495,-752.6346 1175.9495,-752.6346 1175.9495,-752.6346 1174.2182,-757.3253 1171.7278,-751.0765 1172.4869,-762.016 1172.4869,-762.016"/>
</g>
<!-- Company&#45;&gt;Publication -->
<g id="edge7" class="edge">
<title>Company&#45;&gt;Publication</title>
<path fill="none" stroke="#31bd8e" d="M324.5133,-792.6427C325.5564,-791.4239 326.5969,-790.2096 327.6348,-789 371.9106,-737.3972 422.2447,-680.9849 464.3364,-634.4143"/>
<ellipse fill="none" stroke="#31bd8e" cx="321.8767" cy="-795.73" rx="4" ry="4"/>
<polygon fill="#31bd8e" stroke="#31bd8e" points="464.5786,-634.1466 474.6242,-629.7494 467.9328,-630.4386 471.287,-626.7306 471.287,-626.7306 471.287,-626.7306 467.9328,-630.4386 467.9498,-623.7117 464.5786,-634.1466 464.5786,-634.1466"/>
</g>
<!-- DiscProfile -->
<g id="node8" class="node">
<title>DiscProfile</title>
<path fill="none" stroke="#000000" d="M1184.7725,-151.5C1184.7725,-151.5 1408.4971,-151.5 1408.4971,-151.5 1414.4971,-151.5 1420.4971,-157.5 1420.4971,-163.5 1420.4971,-163.5 1420.4971,-267.5 1420.4971,-267.5 1420.4971,-273.5 1414.4971,-279.5 1408.4971,-279.5 1408.4971,-279.5 1184.7725,-279.5 1184.7725,-279.5 1178.7725,-279.5 1172.7725,-273.5 1172.7725,-267.5 1172.7725,-267.5 1172.7725,-163.5 1172.7725,-163.5 1172.7725,-157.5 1178.7725,-151.5 1184.7725,-151.5"/>
<text text-anchor="middle" x="1296.6348" y="-264.3" font-family="Times,serif" font-size="14.00" fill="#000000">DiscProfile</text>
<polyline fill="none" stroke="#000000" points="1172.7725,-257.5 1420.4971,-257.5 "/>
<text text-anchor="start" x="1180.7725" y="-242.3" font-family="Times,serif" font-size="14.00" fill="#000000">serenidad :integer</text>
<text text-anchor="start" x="1180.7725" y="-228.3" font-family="Times,serif" font-size="14.00" fill="#000000">decision :integer</text>
<text text-anchor="start" x="1180.7725" y="-214.3" font-family="Times,serif" font-size="14.00" fill="#000000">interaccion :integer</text>
<text text-anchor="start" x="1180.7725" y="-200.3" font-family="Times,serif" font-size="14.00" fill="#000000">id :integer</text>
<text text-anchor="start" x="1180.7725" y="-186.3" font-family="Times,serif" font-size="14.00" fill="#000000">cumplimiento :integer</text>
<text text-anchor="start" x="1180.7725" y="-172.3" font-family="Times,serif" font-size="14.00" fill="#000000">created_at :timestamp without time zone</text>
<text text-anchor="start" x="1180.7725" y="-158.3" font-family="Times,serif" font-size="14.00" fill="#000000">updated_at :timestamp without time zone</text>
</g>
<!-- Interest -->
<g id="node9" class="node">
<title>Interest</title>
<path fill="none" stroke="#000000" d="M880.7725,-950.5C880.7725,-950.5 1104.4971,-950.5 1104.4971,-950.5 1110.4971,-950.5 1116.4971,-956.5 1116.4971,-962.5 1116.4971,-962.5 1116.4971,-1024.5 1116.4971,-1024.5 1116.4971,-1030.5 1110.4971,-1036.5 1104.4971,-1036.5 1104.4971,-1036.5 880.7725,-1036.5 880.7725,-1036.5 874.7725,-1036.5 868.7725,-1030.5 868.7725,-1024.5 868.7725,-1024.5 868.7725,-962.5 868.7725,-962.5 868.7725,-956.5 874.7725,-950.5 880.7725,-950.5"/>
<text text-anchor="middle" x="992.6348" y="-1021.3" font-family="Times,serif" font-size="14.00" fill="#000000">Interest</text>
<polyline fill="none" stroke="#000000" points="868.7725,-1014.5 1116.4971,-1014.5 "/>
<text text-anchor="start" x="876.7725" y="-999.3" font-family="Times,serif" font-size="14.00" fill="#000000">id :integer</text>
<text text-anchor="start" x="876.7725" y="-985.3" font-family="Times,serif" font-size="14.00" fill="#000000">nombre :character varying</text>
<text text-anchor="start" x="876.7725" y="-971.3" font-family="Times,serif" font-size="14.00" fill="#000000">created_at :timestamp without time zone</text>
<text text-anchor="start" x="876.7725" y="-957.3" font-family="Times,serif" font-size="14.00" fill="#000000">updated_at :timestamp without time zone</text>
</g>
<!-- InterestPublication -->
<g id="node10" class="node">
<title>InterestPublication</title>
<path fill="none" stroke="#000000" d="M652.7725,-165.5C652.7725,-165.5 876.4971,-165.5 876.4971,-165.5 882.4971,-165.5 888.4971,-171.5 888.4971,-177.5 888.4971,-177.5 888.4971,-253.5 888.4971,-253.5 888.4971,-259.5 882.4971,-265.5 876.4971,-265.5 876.4971,-265.5 652.7725,-265.5 652.7725,-265.5 646.7725,-265.5 640.7725,-259.5 640.7725,-253.5 640.7725,-253.5 640.7725,-177.5 640.7725,-177.5 640.7725,-171.5 646.7725,-165.5 652.7725,-165.5"/>
<text text-anchor="middle" x="764.6348" y="-250.3" font-family="Times,serif" font-size="14.00" fill="#000000">InterestPublication</text>
<polyline fill="none" stroke="#000000" points="640.7725,-243.5 888.4971,-243.5 "/>
<text text-anchor="start" x="648.7725" y="-228.3" font-family="Times,serif" font-size="14.00" fill="#000000">id :integer</text>
<text text-anchor="start" x="648.7725" y="-214.3" font-family="Times,serif" font-size="14.00" fill="#000000">publication_id :integer</text>
<text text-anchor="start" x="648.7725" y="-200.3" font-family="Times,serif" font-size="14.00" fill="#000000">interest_id :integer</text>
<text text-anchor="start" x="648.7725" y="-186.3" font-family="Times,serif" font-size="14.00" fill="#000000">created_at :timestamp without time zone</text>
<text text-anchor="start" x="648.7725" y="-172.3" font-family="Times,serif" font-size="14.00" fill="#000000">updated_at :timestamp without time zone</text>
</g>
<!-- Interest&#45;&gt;InterestPublication -->
<g id="edge10" class="edge">
<title>Interest&#45;&gt;InterestPublication</title>
<path fill="none" stroke="#082f1e" d="M977.7032,-942.5492C937.2405,-804.4793 825.6199,-423.5984 782.219,-275.5022"/>
<ellipse fill="none" stroke="#082f1e" cx="978.845" cy="-946.4455" rx="4" ry="4"/>
<polygon fill="#082f1e" stroke="#082f1e" points="782.1494,-275.2646 783.6554,-264.4027 780.7432,-270.4664 779.337,-265.6682 779.337,-265.6682 779.337,-265.6682 780.7432,-270.4664 775.0186,-266.9338 782.1494,-275.2646 782.1494,-275.2646"/>
</g>
<!-- Interest&#45;&gt;Publication -->
<g id="edge11" class="edge">
<title>Interest&#45;&gt;Publication</title>
<path fill="none" stroke="#7a0e64" d="M964.4755,-941.2629C939.8716,-898.0628 901.5967,-836.3431 859.6348,-789 808.5085,-731.3174 743.9411,-675.4013 687.4747,-630.7437"/>
<polygon fill="#7a0e64" stroke="#7a0e64" points="964.5982,-941.4804 965.596,-952.4008 967.0564,-945.8344 969.5146,-950.1884 969.5146,-950.1884 969.5146,-950.1884 967.0564,-945.8344 973.4332,-947.9761 964.5982,-941.4804 964.5982,-941.4804"/>
<polygon fill="#7a0e64" stroke="#7a0e64" points="687.4218,-630.7021 682.3459,-620.9817 683.4924,-627.6101 679.5631,-624.5181 679.5631,-624.5181 679.5631,-624.5181 683.4924,-627.6101 676.7803,-628.0545 687.4218,-630.7021 687.4218,-630.7021"/>
</g>
<!-- Interest&#45;&gt;User -->
<g id="edge9" class="edge">
<title>Interest&#45;&gt;User</title>
<path fill="none" stroke="#2d9766" d="M1026.8031,-941.9103C1056.427,-897.1821 1101.4827,-829.1539 1146.3403,-761.4248"/>
<polygon fill="#2d9766" stroke="#2d9766" points="1026.7562,-941.9811 1017.4826,-947.8336 1023.9953,-946.1498 1021.2343,-950.3184 1021.2343,-950.3184 1021.2343,-950.3184 1023.9953,-946.1498 1024.9861,-952.8032 1026.7562,-941.9811 1026.7562,-941.9811"/>
<polygon fill="#2d9766" stroke="#2d9766" points="1146.5718,-761.0752 1155.8455,-755.2228 1149.3328,-756.9066 1152.0937,-752.738 1152.0937,-752.738 1152.0937,-752.738 1149.3328,-756.9066 1148.3419,-750.2532 1146.5718,-761.0752 1146.5718,-761.0752"/>
</g>
<!-- UserInterest -->
<g id="node18" class="node">
<title>UserInterest</title>
<path fill="none" stroke="#000000" d="M918.7725,-165.5C918.7725,-165.5 1142.4971,-165.5 1142.4971,-165.5 1148.4971,-165.5 1154.4971,-171.5 1154.4971,-177.5 1154.4971,-177.5 1154.4971,-253.5 1154.4971,-253.5 1154.4971,-259.5 1148.4971,-265.5 1142.4971,-265.5 1142.4971,-265.5 918.7725,-265.5 918.7725,-265.5 912.7725,-265.5 906.7725,-259.5 906.7725,-253.5 906.7725,-253.5 906.7725,-177.5 906.7725,-177.5 906.7725,-171.5 912.7725,-165.5 918.7725,-165.5"/>
<text text-anchor="middle" x="1030.6348" y="-250.3" font-family="Times,serif" font-size="14.00" fill="#000000">UserInterest</text>
<polyline fill="none" stroke="#000000" points="906.7725,-243.5 1154.4971,-243.5 "/>
<text text-anchor="start" x="914.7725" y="-228.3" font-family="Times,serif" font-size="14.00" fill="#000000">id :integer</text>
<text text-anchor="start" x="914.7725" y="-214.3" font-family="Times,serif" font-size="14.00" fill="#000000">interest_id :integer</text>
<text text-anchor="start" x="914.7725" y="-200.3" font-family="Times,serif" font-size="14.00" fill="#000000">user_id :integer</text>
<text text-anchor="start" x="914.7725" y="-186.3" font-family="Times,serif" font-size="14.00" fill="#000000">created_at :timestamp without time zone</text>
<text text-anchor="start" x="914.7725" y="-172.3" font-family="Times,serif" font-size="14.00" fill="#000000">updated_at :timestamp without time zone</text>
</g>
<!-- Interest&#45;&gt;UserInterest -->
<g id="edge8" class="edge">
<title>Interest&#45;&gt;UserInterest</title>
<path fill="none" stroke="#d94d0b" d="M995.144,-942.1269C1001.8984,-803.8393 1020.4417,-424.1898 1027.6829,-275.9361"/>
<ellipse fill="none" stroke="#d94d0b" cx="994.9408" cy="-946.2889" rx="4" ry="4"/>
<polygon fill="#d94d0b" stroke="#d94d0b" points="1027.6964,-275.6563 1032.679,-265.8878 1027.9404,-270.6623 1028.1844,-265.6682 1028.1844,-265.6682 1028.1844,-265.6682 1027.9404,-270.6623 1023.6897,-265.4487 1027.6964,-275.6563 1027.6964,-275.6563"/>
</g>
<!-- Publication&#45;&gt;Application -->
<g id="edge13" class="edge">
<title>Publication&#45;&gt;Application</title>
<path fill="none" stroke="#d09fe7" d="M537.7018,-434.1382C528.8987,-384.8718 518.5287,-326.8361 510.6857,-282.9429"/>
<ellipse fill="none" stroke="#d09fe7" cx="538.4444" cy="-438.2943" rx="4" ry="4"/>
<polygon fill="#d09fe7" stroke="#d09fe7" points="510.6599,-282.7981 513.3307,-272.1624 509.7804,-277.876 508.9008,-272.954 508.9008,-272.954 508.9008,-272.954 509.7804,-277.876 504.471,-273.7456 510.6599,-282.7981 510.6599,-282.7981"/>
</g>
<!-- Publication&#45;&gt;InterestPublication -->
<g id="edge12" class="edge">
<title>Publication&#45;&gt;InterestPublication</title>
<path fill="none" stroke="#9f8e87" d="M620.5497,-435.4194C655.2411,-382.4693 696.7624,-319.0946 726.3013,-274.0089"/>
<ellipse fill="none" stroke="#9f8e87" cx="618.2784" cy="-438.8861" rx="4" ry="4"/>
<polygon fill="#9f8e87" stroke="#9f8e87" points="726.3779,-273.8919 735.6223,-267.9935 729.1181,-269.7096 731.8582,-265.5273 731.8582,-265.5273 731.8582,-265.5273 729.1181,-269.7096 728.0942,-263.0612 726.3779,-273.8919 726.3779,-273.8919"/>
</g>
<!-- Region -->
<g id="node13" class="node">
<title>Region</title>
<path fill="none" stroke="#000000" d="M539.7725,-1371.5C539.7725,-1371.5 763.4971,-1371.5 763.4971,-1371.5 769.4971,-1371.5 775.4971,-1377.5 775.4971,-1383.5 775.4971,-1383.5 775.4971,-1445.5 775.4971,-1445.5 775.4971,-1451.5 769.4971,-1457.5 763.4971,-1457.5 763.4971,-1457.5 539.7725,-1457.5 539.7725,-1457.5 533.7725,-1457.5 527.7725,-1451.5 527.7725,-1445.5 527.7725,-1445.5 527.7725,-1383.5 527.7725,-1383.5 527.7725,-1377.5 533.7725,-1371.5 539.7725,-1371.5"/>
<text text-anchor="middle" x="651.6348" y="-1442.3" font-family="Times,serif" font-size="14.00" fill="#000000">Region</text>
<polyline fill="none" stroke="#000000" points="527.7725,-1435.5 775.4971,-1435.5 "/>
<text text-anchor="start" x="535.7725" y="-1420.3" font-family="Times,serif" font-size="14.00" fill="#000000">id :integer</text>
<text text-anchor="start" x="535.7725" y="-1406.3" font-family="Times,serif" font-size="14.00" fill="#000000">nombre :character varying</text>
<text text-anchor="start" x="535.7725" y="-1392.3" font-family="Times,serif" font-size="14.00" fill="#000000">created_at :timestamp without time zone</text>
<text text-anchor="start" x="535.7725" y="-1378.3" font-family="Times,serif" font-size="14.00" fill="#000000">updated_at :timestamp without time zone</text>
</g>
<!-- Region&#45;&gt;City -->
<g id="edge14" class="edge">
<title>Region&#45;&gt;City</title>
<path fill="none" stroke="#61d254" d="M651.6348,-1363.1379C651.6348,-1357.1635 651.6348,-1351.0282 651.6348,-1344.9463"/>
<ellipse fill="none" stroke="#61d254" cx="651.6348" cy="-1367.2119" rx="4" ry="4"/>
<polygon fill="#61d254" stroke="#61d254" points="651.6349,-1344.7992 656.1348,-1334.7991 651.6348,-1339.7992 651.6348,-1334.7992 651.6348,-1334.7992 651.6348,-1334.7992 651.6348,-1339.7992 647.1348,-1334.7992 651.6349,-1344.7992 651.6349,-1344.7992"/>
</g>
<!-- Type -->
<g id="node14" class="node">
<title>Type</title>
<path fill="none" stroke="#000000" d="M614.7725,-950.5C614.7725,-950.5 838.4971,-950.5 838.4971,-950.5 844.4971,-950.5 850.4971,-956.5 850.4971,-962.5 850.4971,-962.5 850.4971,-1024.5 850.4971,-1024.5 850.4971,-1030.5 844.4971,-1036.5 838.4971,-1036.5 838.4971,-1036.5 614.7725,-1036.5 614.7725,-1036.5 608.7725,-1036.5 602.7725,-1030.5 602.7725,-1024.5 602.7725,-1024.5 602.7725,-962.5 602.7725,-962.5 602.7725,-956.5 608.7725,-950.5 614.7725,-950.5"/>
<text text-anchor="middle" x="726.6348" y="-1021.3" font-family="Times,serif" font-size="14.00" fill="#000000">Type</text>
<polyline fill="none" stroke="#000000" points="602.7725,-1014.5 850.4971,-1014.5 "/>
<text text-anchor="start" x="610.7725" y="-999.3" font-family="Times,serif" font-size="14.00" fill="#000000">id :integer</text>
<text text-anchor="start" x="610.7725" y="-985.3" font-family="Times,serif" font-size="14.00" fill="#000000">nombre :character varying</text>
<text text-anchor="start" x="610.7725" y="-971.3" font-family="Times,serif" font-size="14.00" fill="#000000">created_at :timestamp without time zone</text>
<text text-anchor="start" x="610.7725" y="-957.3" font-family="Times,serif" font-size="14.00" fill="#000000">updated_at :timestamp without time zone</text>
</g>
<!-- Type&#45;&gt;Publication -->
<g id="edge15" class="edge">
<title>Type&#45;&gt;Publication</title>
<path fill="none" stroke="#6a7078" d="M707.7205,-942.7301C680.3268,-869.1996 629.0233,-731.4902 593.6301,-636.4876"/>
<ellipse fill="none" stroke="#6a7078" cx="709.151" cy="-946.5701" rx="4" ry="4"/>
<polygon fill="#6a7078" stroke="#6a7078" points="593.5326,-636.2257 594.2584,-625.2839 591.7871,-631.5403 590.0415,-626.8549 590.0415,-626.8549 590.0415,-626.8549 591.7871,-631.5403 585.8246,-628.4259 593.5326,-636.2257 593.5326,-636.2257"/>
</g>
<!-- University -->
<g id="node15" class="node">
<title>University</title>
<path fill="none" stroke="#000000" d="M1184.7725,-950.5C1184.7725,-950.5 1408.4971,-950.5 1408.4971,-950.5 1414.4971,-950.5 1420.4971,-956.5 1420.4971,-962.5 1420.4971,-962.5 1420.4971,-1024.5 1420.4971,-1024.5 1420.4971,-1030.5 1414.4971,-1036.5 1408.4971,-1036.5 1408.4971,-1036.5 1184.7725,-1036.5 1184.7725,-1036.5 1178.7725,-1036.5 1172.7725,-1030.5 1172.7725,-1024.5 1172.7725,-1024.5 1172.7725,-962.5 1172.7725,-962.5 1172.7725,-956.5 1178.7725,-950.5 1184.7725,-950.5"/>
<text text-anchor="middle" x="1296.6348" y="-1021.3" font-family="Times,serif" font-size="14.00" fill="#000000">University</text>
<polyline fill="none" stroke="#000000" points="1172.7725,-1014.5 1420.4971,-1014.5 "/>
<text text-anchor="start" x="1180.7725" y="-999.3" font-family="Times,serif" font-size="14.00" fill="#000000">id :integer</text>
<text text-anchor="start" x="1180.7725" y="-985.3" font-family="Times,serif" font-size="14.00" fill="#000000">nombre :character varying</text>
<text text-anchor="start" x="1180.7725" y="-971.3" font-family="Times,serif" font-size="14.00" fill="#000000">created_at :timestamp without time zone</text>
<text text-anchor="start" x="1180.7725" y="-957.3" font-family="Times,serif" font-size="14.00" fill="#000000">updated_at :timestamp without time zone</text>
</g>
<!-- University&#45;&gt;User -->
<g id="edge16" class="edge">
<title>University&#45;&gt;User</title>
<path fill="none" stroke="#379208" d="M1296.6348,-942.2003C1296.6348,-897.8447 1296.6348,-830.4216 1296.6348,-763.1016"/>
<ellipse fill="none" stroke="#379208" cx="1296.6348" cy="-946.3184" rx="4" ry="4"/>
<polygon fill="#379208" stroke="#379208" points="1296.6349,-762.738 1301.1348,-752.738 1296.6348,-757.738 1296.6348,-752.738 1296.6348,-752.738 1296.6348,-752.738 1296.6348,-757.738 1292.1348,-752.738 1296.6349,-762.738 1296.6349,-762.738"/>
</g>
<!-- User&#45;&gt;DiscProfile -->
<g id="edge19" class="edge">
<title>User&#45;&gt;DiscProfile</title>
<path fill="none" stroke="#26f039" d="M1296.6348,-308.2711C1296.6348,-301.1925 1296.6348,-294.3279 1296.6348,-287.7493"/>
<ellipse fill="none" stroke="#26f039" cx="1296.6348" cy="-312.4336" rx="4" ry="4"/>
<ellipse fill="#26f039" stroke="#26f039" cx="1296.6348" cy="-283.5749" rx="4" ry="4"/>
</g>
<!-- User&#45;&gt;UserCareer -->
<g id="edge17" class="edge">
<title>User&#45;&gt;UserCareer</title>
<path fill="none" stroke="#f39941" d="M1461.6189,-336.6431C1480.6792,-313.7851 1498.8078,-292.0444 1514.3094,-273.4542"/>
<ellipse fill="none" stroke="#f39941" cx="1458.9194" cy="-339.8804" rx="4" ry="4"/>
<polygon fill="#f39941" stroke="#f39941" points="1514.3828,-273.366 1524.2432,-268.5677 1517.585,-269.5259 1520.7871,-265.6857 1520.7871,-265.6857 1520.7871,-265.6857 1517.585,-269.5259 1517.331,-262.8038 1514.3828,-273.366 1514.3828,-273.366"/>
</g>
<!-- User&#45;&gt;UserInterest -->
<g id="edge18" class="edge">
<title>User&#45;&gt;UserInterest</title>
<path fill="none" stroke="#d3fc22" d="M1131.6506,-336.6431C1112.5904,-313.7851 1094.4617,-292.0444 1078.9602,-273.4542"/>
<ellipse fill="none" stroke="#d3fc22" cx="1134.3501" cy="-339.8804" rx="4" ry="4"/>
<polygon fill="#d3fc22" stroke="#d3fc22" points="1078.8867,-273.366 1075.9386,-262.8038 1075.6846,-269.5259 1072.4824,-265.6857 1072.4824,-265.6857 1072.4824,-265.6857 1075.6846,-269.5259 1069.0263,-268.5677 1078.8867,-273.366 1078.8867,-273.366"/>
</g>
</g>
</svg>
