<?xml version="1.0" encoding="UTF-8" standalone="no"?>
<!DOCTYPE svg PUBLIC "-//W3C//DTD SVG 1.1//EN"
 "http://www.w3.org/Graphics/SVG/1.1/DTD/svg11.dtd">
<!-- Generated by graphviz version 2.38.0 (20140413.2041)
 -->
<!-- Title: models_diagram Pages: 1 -->
<svg width="547pt" height="518pt"
 viewBox="0.00 0.00 547.29 518.00" xmlns="http://www.w3.org/2000/svg" xmlns:xlink="http://www.w3.org/1999/xlink">
<g id="graph0" class="graph" transform="scale(1 1) rotate(0) translate(4 514)">
<title>models_diagram</title>
<polygon fill="none" stroke="none" points="-4,4 -4,-514 543.293,-514 543.293,4 -4,4"/>
<!-- _diagram_info -->
<g id="node1" class="node"><title>_diagram_info</title>
<text text-anchor="start" x="41.6955" y="-495.6" font-family="Times,serif" font-size="13.00">Models diagram</text>
<text text-anchor="start" x="41.6955" y="-481.6" font-family="Times,serif" font-size="13.00">Date: Sep 25 2017 &#45; 22:18</text>
<text text-anchor="start" x="41.6955" y="-467.6" font-family="Times,serif" font-size="13.00">Migration version: 20170920184856</text>
<text text-anchor="start" x="41.6955" y="-453.6" font-family="Times,serif" font-size="13.00">Generated by RailRoady 1.5.3</text>
<text text-anchor="start" x="41.6955" y="-439.6" font-family="Times,serif" font-size="13.00">http://railroady.prestonlee.com</text>
</g>
<!-- Type -->
<g id="node2" class="node"><title>Type</title>
<ellipse fill="none" stroke="black" cx="510.696" cy="-234" rx="28.6953" ry="18"/>
<text text-anchor="middle" x="510.696" y="-230.3" font-family="Times,serif" font-size="14.00">Type</text>
</g>
<!-- Publication -->
<g id="node12" class="node"><title>Publication</title>
<ellipse fill="none" stroke="black" cx="379.696" cy="-162" rx="50.8918" ry="18"/>
<text text-anchor="middle" x="379.696" y="-158.3" font-family="Times,serif" font-size="14.00">Publication</text>
</g>
<!-- Type&#45;&gt;Publication -->
<g id="edge1" class="edge"><title>Type&#45;&gt;Publication</title>
<path fill="none" stroke="#7b29f0" d="M482.386,-217.873C462.806,-207.41 436.594,-193.404 415.554,-182.161"/>
<ellipse fill="none" stroke="#7b29f0" cx="486.12" cy="-219.868" rx="4.00002" ry="4.00002"/>
<polygon fill="#7b29f0" stroke="#7b29f0" points="415.411,-182.084 408.712,-173.403 411.001,-179.728 406.591,-177.371 406.591,-177.371 406.591,-177.371 411.001,-179.728 404.47,-181.34 415.411,-182.084 415.411,-182.084"/>
</g>
<!-- DiscProfile -->
<g id="node3" class="node"><title>DiscProfile</title>
<ellipse fill="none" stroke="black" cx="300.696" cy="-234" rx="50.8918" ry="18"/>
<text text-anchor="middle" x="300.696" y="-230.3" font-family="Times,serif" font-size="14.00">DiscProfile</text>
</g>
<!-- Message -->
<g id="node4" class="node"><title>Message</title>
<ellipse fill="none" stroke="black" cx="379.696" cy="-18" rx="42.4939" ry="18"/>
<text text-anchor="middle" x="379.696" y="-14.3" font-family="Times,serif" font-size="14.00">Message</text>
</g>
<!-- Career -->
<g id="node5" class="node"><title>Career</title>
<ellipse fill="none" stroke="black" cx="82.6955" cy="-378" rx="34.394" ry="18"/>
<text text-anchor="middle" x="82.6955" y="-374.3" font-family="Times,serif" font-size="14.00">Career</text>
</g>
<!-- User -->
<g id="node7" class="node"><title>User</title>
<ellipse fill="none" stroke="black" cx="188.696" cy="-306" rx="27.0966" ry="18"/>
<text text-anchor="middle" x="188.696" y="-302.3" font-family="Times,serif" font-size="14.00">User</text>
</g>
<!-- Career&#45;&gt;User -->
<g id="edge3" class="edge"><title>Career&#45;&gt;User</title>
<path fill="none" stroke="#cccd51" d="M111.56,-357.938C127.145,-347.646 146.271,-335.016 161.579,-324.907"/>
<polygon fill="#cccd51" stroke="#cccd51" points="111.478,-357.993 100.654,-359.748 107.306,-360.748 103.133,-363.503 103.133,-363.503 103.133,-363.503 107.306,-360.748 105.613,-367.258 111.478,-357.993 111.478,-357.993"/>
<polygon fill="#cccd51" stroke="#cccd51" points="161.751,-324.794 172.575,-323.038 165.923,-322.039 170.095,-319.283 170.095,-319.283 170.095,-319.283 165.923,-322.039 167.615,-315.528 161.751,-324.794 161.751,-324.794"/>
</g>
<!-- UserCareer -->
<g id="node13" class="node"><title>UserCareer</title>
<ellipse fill="none" stroke="black" cx="50.6955" cy="-234" rx="50.8918" ry="18"/>
<text text-anchor="middle" x="50.6955" y="-230.3" font-family="Times,serif" font-size="14.00">UserCareer</text>
</g>
<!-- Career&#45;&gt;UserCareer -->
<g id="edge2" class="edge"><title>Career&#45;&gt;UserCareer</title>
<path fill="none" stroke="#34c32d" d="M77.0456,-351.929C71.3659,-326.725 62.6378,-287.994 56.8014,-262.095"/>
<ellipse fill="none" stroke="#34c32d" cx="77.9562" cy="-355.969" rx="4.00001" ry="4.00001"/>
<polygon fill="#34c32d" stroke="#34c32d" points="56.7676,-261.945 58.9591,-251.2 55.6684,-257.067 54.5691,-252.189 54.5691,-252.189 54.5691,-252.189 55.6684,-257.067 50.1792,-253.179 56.7676,-261.945 56.7676,-261.945"/>
</g>
<!-- Company -->
<g id="node6" class="node"><title>Company</title>
<ellipse fill="none" stroke="black" cx="358.696" cy="-306" rx="45.4919" ry="18"/>
<text text-anchor="middle" x="358.696" y="-302.3" font-family="Times,serif" font-size="14.00">Company</text>
</g>
<!-- Company&#45;&gt;Publication -->
<g id="edge4" class="edge"><title>Company&#45;&gt;Publication</title>
<path fill="none" stroke="#b41064" d="M362.403,-279.929C366.131,-254.725 371.858,-215.994 375.689,-190.095"/>
<ellipse fill="none" stroke="#b41064" cx="361.814" cy="-283.915" rx="4.00001" ry="4.00001"/>
<polygon fill="#b41064" stroke="#b41064" points="375.69,-190.082 381.605,-180.848 376.422,-185.135 377.153,-180.189 377.153,-180.189 377.153,-180.189 376.422,-185.135 372.702,-179.531 375.69,-190.082 375.69,-190.082"/>
</g>
<!-- User&#45;&gt;DiscProfile -->
<g id="edge8" class="edge"><title>User&#45;&gt;DiscProfile</title>
<path fill="none" stroke="#bd794b" d="M215.02,-288.547C231.34,-278.347 252.39,-265.191 269.54,-254.472"/>
<ellipse fill="none" stroke="#bd794b" cx="211.341" cy="-290.847" rx="4.00002" ry="4.00002"/>
<ellipse fill="#bd794b" stroke="#bd794b" cx="273.234" cy="-252.164" rx="4.00002" ry="4.00002"/>
</g>
<!-- Interest -->
<g id="node11" class="node"><title>Interest</title>
<ellipse fill="none" stroke="black" cx="194.696" cy="-234" rx="37.0935" ry="18"/>
<text text-anchor="middle" x="194.696" y="-230.3" font-family="Times,serif" font-size="14.00">Interest</text>
</g>
<!-- User&#45;&gt;Interest -->
<g id="edge7" class="edge"><title>User&#45;&gt;Interest</title>
<path fill="none" stroke="#694c7a" d="M191.038,-277.665C191.477,-272.552 191.935,-267.21 192.372,-262.104"/>
<polygon fill="#694c7a" stroke="#694c7a" points="191.033,-277.733 185.695,-287.312 190.606,-282.715 190.179,-287.697 190.179,-287.697 190.179,-287.697 190.606,-282.715 194.662,-288.081 191.033,-277.733 191.033,-277.733"/>
<polygon fill="#694c7a" stroke="#694c7a" points="192.375,-262.068 197.713,-252.489 192.802,-257.086 193.229,-252.104 193.229,-252.104 193.229,-252.104 192.802,-257.086 188.746,-251.72 192.375,-262.068 192.375,-262.068"/>
</g>
<!-- User&#45;&gt;UserCareer -->
<g id="edge5" class="edge"><title>User&#45;&gt;UserCareer</title>
<path fill="none" stroke="#20bc1d" d="M160.348,-290.621C139.312,-279.95 110.44,-265.305 87.6034,-253.721"/>
<ellipse fill="none" stroke="#20bc1d" cx="164.169" cy="-292.559" rx="4.00002" ry="4.00002"/>
<polygon fill="#20bc1d" stroke="#20bc1d" points="87.4623,-253.65 80.5797,-245.113 83.0031,-251.388 78.544,-249.126 78.544,-249.126 78.544,-249.126 83.0031,-251.388 76.5083,-253.139 87.4623,-253.65 87.4623,-253.65"/>
</g>
<!-- UserInterest -->
<g id="node16" class="node"><title>UserInterest</title>
<ellipse fill="none" stroke="black" cx="139.696" cy="-162" rx="53.8905" ry="18"/>
<text text-anchor="middle" x="139.696" y="-158.3" font-family="Times,serif" font-size="14.00">UserInterest</text>
</g>
<!-- User&#45;&gt;UserInterest -->
<g id="edge6" class="edge"><title>User&#45;&gt;UserInterest</title>
<path fill="none" stroke="#478e77" d="M168.903,-284.325C161.278,-275.134 153.3,-263.745 148.696,-252 140.96,-232.271 138.914,-208.288 138.69,-190.191"/>
<ellipse fill="none" stroke="#478e77" cx="171.722" cy="-287.579" rx="4.00002" ry="4.00002"/>
<polygon fill="#478e77" stroke="#478e77" points="138.691,-190.034 143.245,-180.059 138.718,-185.034 138.745,-180.034 138.745,-180.034 138.745,-180.034 138.718,-185.034 134.245,-180.01 138.691,-190.034 138.691,-190.034"/>
</g>
<!-- ApplicationRecord -->
<g id="node8" class="node"><title>ApplicationRecord</title>
<ellipse fill="none" stroke="black" cx="433.696" cy="-471" rx="77.1866" ry="18"/>
<text text-anchor="middle" x="433.696" y="-467.3" font-family="Times,serif" font-size="14.00">ApplicationRecord</text>
</g>
<!-- Application -->
<g id="node9" class="node"><title>Application</title>
<ellipse fill="none" stroke="black" cx="379.696" cy="-90" rx="51.9908" ry="18"/>
<text text-anchor="middle" x="379.696" y="-86.3" font-family="Times,serif" font-size="14.00">Application</text>
</g>
<!-- Application&#45;&gt;Message -->
<g id="edge9" class="edge"><title>Application&#45;&gt;Message</title>
<path fill="none" stroke="#12043e" d="M379.696,-63.6398C379.696,-58.0629 379.696,-52.1319 379.696,-46.4761"/>
<ellipse fill="none" stroke="#12043e" cx="379.696" cy="-67.6966" rx="4" ry="4"/>
<polygon fill="#12043e" stroke="#12043e" points="379.696,-46.1043 384.196,-36.1043 379.696,-41.1043 379.696,-36.1043 379.696,-36.1043 379.696,-36.1043 379.696,-41.1043 375.196,-36.1044 379.696,-46.1043 379.696,-46.1043"/>
</g>
<!-- University -->
<g id="node10" class="node"><title>University</title>
<ellipse fill="none" stroke="black" cx="188.696" cy="-378" rx="48.1917" ry="18"/>
<text text-anchor="middle" x="188.696" y="-374.3" font-family="Times,serif" font-size="14.00">University</text>
</g>
<!-- University&#45;&gt;User -->
<g id="edge10" class="edge"><title>University&#45;&gt;User</title>
<path fill="none" stroke="#3b1e0b" d="M188.696,-351.64C188.696,-346.063 188.696,-340.132 188.696,-334.476"/>
<ellipse fill="none" stroke="#3b1e0b" cx="188.696" cy="-355.697" rx="4" ry="4"/>
<polygon fill="#3b1e0b" stroke="#3b1e0b" points="188.696,-334.104 193.196,-324.104 188.696,-329.104 188.696,-324.104 188.696,-324.104 188.696,-324.104 188.696,-329.104 184.196,-324.104 188.696,-334.104 188.696,-334.104"/>
</g>
<!-- Interest&#45;&gt;Publication -->
<g id="edge13" class="edge"><title>Interest&#45;&gt;Publication</title>
<path fill="none" stroke="#b0fb3b" d="M232.62,-218.65C262.872,-207.204 305.246,-191.17 336.745,-179.252"/>
<polygon fill="#b0fb3b" stroke="#b0fb3b" points="232.549,-218.677 221.604,-218.007 227.873,-220.446 223.196,-222.216 223.196,-222.216 223.196,-222.216 227.873,-220.446 224.789,-226.425 232.549,-218.677 232.549,-218.677"/>
<polygon fill="#b0fb3b" stroke="#b0fb3b" points="336.793,-179.234 347.738,-179.903 341.469,-177.464 346.146,-175.695 346.146,-175.695 346.146,-175.695 341.469,-177.464 344.553,-171.486 336.793,-179.234 336.793,-179.234"/>
</g>
<!-- InterestPublication -->
<g id="node15" class="node"><title>InterestPublication</title>
<ellipse fill="none" stroke="black" cx="229.696" cy="-90" rx="77.1866" ry="18"/>
<text text-anchor="middle" x="229.696" y="-86.3" font-family="Times,serif" font-size="14.00">InterestPublication</text>
</g>
<!-- Interest&#45;&gt;InterestPublication -->
<g id="edge12" class="edge"><title>Interest&#45;&gt;InterestPublication</title>
<path fill="none" stroke="#5e66b9" d="M200.875,-207.929C207.087,-182.725 216.634,-143.994 223.017,-118.095"/>
<ellipse fill="none" stroke="#5e66b9" cx="199.875" cy="-211.988" rx="4.00001" ry="4.00001"/>
<polygon fill="#5e66b9" stroke="#5e66b9" points="223.065,-117.899 229.828,-109.266 224.262,-113.044 225.459,-108.189 225.459,-108.189 225.459,-108.189 224.262,-113.044 221.089,-107.112 223.065,-117.899 223.065,-117.899"/>
</g>
<!-- Interest&#45;&gt;UserInterest -->
<g id="edge11" class="edge"><title>Interest&#45;&gt;UserInterest</title>
<path fill="none" stroke="#a39022" d="M176.976,-210.448C171.318,-203.247 165.026,-195.238 159.246,-187.882"/>
<ellipse fill="none" stroke="#a39022" cx="179.468" cy="-213.619" rx="4.00002" ry="4.00002"/>
<polygon fill="#a39022" stroke="#a39022" points="158.943,-187.497 156.303,-176.853 155.854,-183.565 152.765,-179.633 152.765,-179.633 152.765,-179.633 155.854,-183.565 149.226,-182.414 158.943,-187.497 158.943,-187.497"/>
</g>
<!-- Publication&#45;&gt;Application -->
<g id="edge15" class="edge"><title>Publication&#45;&gt;Application</title>
<path fill="none" stroke="#8d3ea4" d="M379.696,-135.64C379.696,-130.063 379.696,-124.132 379.696,-118.476"/>
<ellipse fill="none" stroke="#8d3ea4" cx="379.696" cy="-139.697" rx="4" ry="4"/>
<polygon fill="#8d3ea4" stroke="#8d3ea4" points="379.696,-118.104 384.196,-108.104 379.696,-113.104 379.696,-108.104 379.696,-108.104 379.696,-108.104 379.696,-113.104 375.196,-108.104 379.696,-118.104 379.696,-118.104"/>
</g>
<!-- Publication&#45;&gt;InterestPublication -->
<g id="edge14" class="edge"><title>Publication&#45;&gt;InterestPublication</title>
<path fill="none" stroke="#03ee04" d="M342.705,-143.738C321.253,-133.727 294.162,-121.084 271.882,-110.687"/>
<ellipse fill="none" stroke="#03ee04" cx="346.436" cy="-145.479" rx="4.00002" ry="4.00002"/>
<polygon fill="#03ee04" stroke="#03ee04" points="271.72,-110.612 264.562,-102.305 267.19,-108.497 262.659,-106.383 262.659,-106.383 262.659,-106.383 267.19,-108.497 260.756,-110.461 271.72,-110.612 271.72,-110.612"/>
</g>
<!-- Region -->
<g id="node14" class="node"><title>Region</title>
<ellipse fill="none" stroke="black" cx="301.696" cy="-471" rx="36.2938" ry="18"/>
<text text-anchor="middle" x="301.696" y="-467.3" font-family="Times,serif" font-size="14.00">Region</text>
</g>
<!-- City -->
<g id="node18" class="node"><title>City</title>
<ellipse fill="none" stroke="black" cx="301.696" cy="-378" rx="27" ry="18"/>
<text text-anchor="middle" x="301.696" y="-374.3" font-family="Times,serif" font-size="14.00">City</text>
</g>
<!-- Region&#45;&gt;City -->
<g id="edge16" class="edge"><title>Region&#45;&gt;City</title>
<path fill="none" stroke="#698e98" d="M301.696,-444.729C301.696,-432.725 301.696,-418.362 301.696,-406.129"/>
<ellipse fill="none" stroke="#698e98" cx="301.696" cy="-448.884" rx="4" ry="4"/>
<polygon fill="#698e98" stroke="#698e98" points="301.696,-406.04 306.196,-396.04 301.696,-401.04 301.696,-396.04 301.696,-396.04 301.696,-396.04 301.696,-401.04 297.196,-396.04 301.696,-406.04 301.696,-406.04"/>
</g>
<!-- Area -->
<g id="node17" class="node"><title>Area</title>
<ellipse fill="none" stroke="black" cx="435.696" cy="-234" rx="27.8951" ry="18"/>
<text text-anchor="middle" x="435.696" y="-230.3" font-family="Times,serif" font-size="14.00">Area</text>
</g>
<!-- Area&#45;&gt;Publication -->
<g id="edge17" class="edge"><title>Area&#45;&gt;Publication</title>
<path fill="none" stroke="#1b859e" d="M418.133,-211.047C412.133,-203.547 405.386,-195.114 399.24,-187.43"/>
<ellipse fill="none" stroke="#1b859e" cx="420.768" cy="-214.341" rx="4.00002" ry="4.00002"/>
<polygon fill="#1b859e" stroke="#1b859e" points="399.116,-187.276 396.383,-176.656 395.993,-183.372 392.869,-179.467 392.869,-179.467 392.869,-179.467 395.993,-183.372 389.355,-182.278 399.116,-187.276 399.116,-187.276"/>
</g>
<!-- City&#45;&gt;Company -->
<g id="edge19" class="edge"><title>City&#45;&gt;Company</title>
<path fill="none" stroke="#d30ee1" d="M319.29,-355.392C325.408,-347.879 332.316,-339.396 338.619,-331.655"/>
<ellipse fill="none" stroke="#d30ee1" cx="316.589" cy="-358.709" rx="4.00002" ry="4.00002"/>
<polygon fill="#d30ee1" stroke="#d30ee1" points="338.841,-331.382 348.645,-326.469 341.999,-327.505 345.156,-323.628 345.156,-323.628 345.156,-323.628 341.999,-327.505 341.666,-320.786 338.841,-331.382 338.841,-331.382"/>
</g>
<!-- City&#45;&gt;User -->
<g id="edge18" class="edge"><title>City&#45;&gt;User</title>
<path fill="none" stroke="#eced28" d="M275.574,-360.818C257.992,-349.927 234.825,-335.576 216.836,-324.432"/>
<ellipse fill="none" stroke="#eced28" cx="279.126" cy="-363.019" rx="4.00002" ry="4.00002"/>
<polygon fill="#eced28" stroke="#eced28" points="216.46,-324.199 210.328,-315.107 212.209,-321.566 207.958,-318.933 207.958,-318.933 207.958,-318.933 212.209,-321.566 205.589,-322.758 216.46,-324.199 216.46,-324.199"/>
</g>
</g>
</svg>
